<svg width="18" height="16" viewBox="0 0 18 16" fill="none" xmlns="http://www.w3.org/2000/svg">
<path fill-rule="evenodd" clip-rule="evenodd" d="M14 0.5C14.5523 0.5 15 0.947744 15 1.50003V3.5H17C17.5523 3.5 18 3.94774 18 4.50003C18 5.05232 17.5523 5.50001 17 5.50001H15V7.50003C15 8.05233 14.5523 8.50002 14 8.50002C13.4477 8.50002 13 8.05233 13 7.50003V5.50001H11C10.4477 5.50001 9.99999 5.05232 9.99999 4.50003C9.99999 3.94774 10.4477 3.5 11 3.5H13V1.50003C13 0.947744 13.4477 0.5 14 0.5ZM6.99999 3.5H0.999999C0.44772 3.5 0 3.94774 0 4.50003C0 5.05232 0.44772 5.50001 0.999999 5.50001H6.99999C7.55227 5.50001 7.99999 5.05232 7.99999 4.50003C7.99999 3.94774 7.55227 3.5 6.99999 3.5ZM0.999999 13.5H17C17.5523 13.5 18 13.9477 18 14.5C18 15.0523 17.5523 15.5 17 15.5H0.999999C0.44772 15.5 0 15.0523 0 14.5C0 13.9477 0.44772 13.5 0.999999 13.5ZM9.99999 8.50002H0.999999C0.44772 8.50002 0 8.9477 0 9.50001C0 10.0523 0.44772 10.5 0.999999 10.5H9.99999C10.5523 10.5 11 10.0523 11 9.50001C11 8.9477 10.5523 8.50002 9.99999 8.50002Z" fill="white"/>
</svg>
