<svg width="14" height="13" viewBox="0 0 14 13" fill="none" xmlns="http://www.w3.org/2000/svg">
<path fill-rule="evenodd" clip-rule="evenodd" d="M9.49382 3.74651L4.75428 8.51585C4.59686 8.67291 4.34248 8.67291 4.18535 8.51585C4.02823 8.35887 4.02823 8.10156 4.18535 7.94442L9.74032 2.35442C9.97049 2.12154 10.3442 2.12154 10.5743 2.35442L11.8256 3.61374C12.0556 3.844 12.0556 4.22046 11.8256 4.45334L6.27082 10.0434C5.27692 11.0427 3.66537 11.0427 2.66882 10.0434C1.67458 9.04121 1.67458 7.41902 2.66882 6.41689L7.40836 1.64758C7.67104 1.38492 7.67104 0.956969 7.40836 0.694239C7.1484 0.431444 6.72307 0.431444 6.46046 0.694239L1.72085 5.46351C0.204019 6.99109 0.204019 9.46921 1.72085 10.9967C3.24033 12.5243 5.70218 12.5243 7.21873 10.9967L13.1905 4.98694C13.7134 4.45877 13.7134 3.60567 13.1905 3.07766L11.1051 0.981279C10.5824 0.453102 9.73185 0.453102 9.20928 0.981279L3.23744 6.99109C2.55769 7.67363 2.55769 8.78403 3.23744 9.46921C3.9198 10.1545 5.02219 10.1545 5.70218 9.46921L10.4418 4.69984C10.7044 4.43708 10.7044 4.00911 10.4418 3.74651C10.1789 3.48391 9.7565 3.48391 9.49382 3.74651Z" fill="#888888"/>
</svg>
