<svg width="32" height="28" viewBox="0 0 32 28" fill="none" xmlns="http://www.w3.org/2000/svg">
<path fill-rule="evenodd" clip-rule="evenodd" d="M21.6927 24.042C21.1548 24.042 20.7186 23.5947 20.7186 23.0419C20.7186 22.4893 21.1548 22.042 21.6927 22.042H23.9187C27.2507 22.042 29.4505 18.2441 29.4505 14.8359C29.4505 11.0907 26.277 8.07713 22.6588 7.99904L21.9562 7.98344L21.7483 7.29491C20.7429 3.95698 18.5692 1.99995 14.6998 1.99995C9.8724 1.99995 6.74983 5.67379 6.74983 10.5449L6.7569 10.5566L6.83588 11.4736L5.95171 11.6298C3.79741 12.0098 2.07991 14.2783 2.07991 16.793C2.07991 19.6387 4.22707 22.042 6.73215 22.042H9.54666C10.0846 22.042 10.5207 22.4893 10.5207 23.0419C10.5207 23.5947 10.0846 24.042 9.54666 24.042H6.73215C3.17107 24.042 0.162109 20.7227 0.162109 16.793C0.162109 13.583 2.11566 10.749 4.822 9.86043C5.15979 4.27824 9.08671 0 14.6998 0C19.1109 0 22.0314 2.34369 23.3903 6.04493C27.7952 6.53127 31.3188 10.2197 31.3188 14.8359C31.3188 19.1299 28.7817 23.9072 23.9111 24.0391L21.6927 24.042ZM16.7109 16.7754L18.8535 19.2011C19.1256 19.4932 19.5661 19.588 19.8382 19.2959L20.0836 19.125C20.3557 18.8321 20.3557 18.3595 20.0836 18.0675L16.4782 14.0128C16.476 14.0101 16.4745 14.0074 16.4729 14.0048C16.4711 14.0017 16.4694 13.9988 16.4669 13.9962L16.2204 13.7314C16.0854 13.5851 15.9055 13.5127 15.7267 13.5136C15.5469 13.5127 15.3681 13.5851 15.2311 13.7314L14.9847 13.9962C14.9841 13.9967 14.9837 13.9973 14.9832 13.9978C14.9817 13.9999 14.9806 14.0021 14.9795 14.0043C14.9781 14.0073 14.9767 14.0102 14.9742 14.0128L11.4583 18.005C11.1862 18.2969 11.1862 18.7695 11.4583 19.0625L11.7037 19.2335C11.9757 19.5254 12.4171 19.4306 12.6893 19.1387L14.7627 16.7649V26.8418C14.7627 27.3941 15.1987 27.8418 15.7367 27.8418C16.2747 27.8418 16.7109 27.3941 16.7109 26.8418V16.7754Z" fill="#AAAAAA"/>
</svg>
