<svg width="31" height="29" viewBox="0 0 31 29" fill="none" xmlns="http://www.w3.org/2000/svg">
<g clip-path="url(#clip0_105_4150)">
<path d="M9.25977 23.4377C9.26666 23.5401 9.26459 23.6066 9.27632 23.6704C9.38737 24.2674 9.51014 24.863 9.6074 25.4627C9.64533 25.6968 9.73776 25.8745 9.93779 26H12.8809C13.0996 25.8895 13.1968 25.7043 13.23 25.4729C13.2555 25.2979 13.2913 25.1242 13.3231 24.9499C13.412 24.4567 13.501 23.9641 13.5969 23.4309C12.1333 23.8061 10.7082 23.804 9.25977 23.4377Z" fill="#929292"/>
<path d="M15.3247 10.1266C15.1219 9.62459 14.9316 9.12867 14.7184 8.64293C14.6708 8.53438 14.5584 8.42313 14.448 8.37632C12.7582 7.66534 11.0276 7.56494 9.26184 8.06696C5.54686 9.12392 3.2038 12.7833 3.86319 16.5491C4.57294 20.6033 8.35758 23.2484 12.3443 22.7531C14.3639 22.5021 16.0158 21.5903 17.3243 20.0646C17.4664 19.8991 17.5919 19.7207 17.7299 19.5422C17.6347 19.4676 17.5747 19.4018 17.4995 19.3652C17.2595 19.2471 17.205 19.0619 17.2105 18.8082C17.2263 18.0212 17.2167 17.2343 17.2167 16.4473V15.9772C16.3869 15.8422 15.9344 15.446 15.8379 14.7628C15.8089 14.5586 15.8337 14.347 15.8337 14.1455C14.8929 14.0234 14.4315 13.5078 14.4308 12.6231C14.4308 12.3185 14.4439 12.0133 14.428 11.7093C14.3908 11.0024 14.6267 10.4495 15.3261 10.1266H15.3247ZM11.4325 17.3211C10.2744 17.3259 9.34185 16.4263 9.33013 15.2927C9.3184 14.1692 10.2558 13.2452 11.4097 13.2432C12.5643 13.2412 13.501 14.1543 13.4996 15.2818C13.4983 16.3998 12.5692 17.3164 11.4325 17.3204V17.3211Z" fill="#929292"/>
<path d="M25.893 5.7374e-05C23.9321 5.7374e-05 21.9711 5.7374e-05 20.0095 5.7374e-05C19.1494 5.7374e-05 18.2893 5.7374e-05 17.4291 5.7374e-05C16.2938 5.7374e-05 15.1585 -0.000621034 14.0232 5.7374e-05C13.7066 5.7374e-05 13.5052 0.160162 13.5038 0.436952C13.4976 1.66351 13.4983 2.89007 13.5038 4.11731C13.5045 4.37104 13.6824 4.542 13.9411 4.56032C14.0783 4.56981 14.2163 4.5671 14.3536 4.5671C18.1982 4.5671 22.0429 4.5671 25.8882 4.5671C26.3255 4.5671 26.4979 4.40089 26.4993 3.97078C26.5014 2.8453 26.5014 1.7205 26.4993 0.595021C26.4986 0.158126 26.3351 5.7374e-05 25.8937 5.7374e-05H25.893Z" fill="#929292"/>
<path d="M14.4598 5.56094C15.0447 7.00256 15.6331 8.44282 16.2111 9.88647C16.2745 10.0452 16.3759 10.0486 16.5104 10.0479C18.8335 10.0466 21.1566 10.0445 23.4796 10.0513C23.659 10.0513 23.7314 9.98959 23.7935 9.83491C24.3494 8.45435 24.9129 7.07718 25.4737 5.69798C25.4999 5.63353 25.5137 5.56433 25.5378 5.48157H14.4474C14.4543 5.52838 14.4536 5.54534 14.4598 5.56026V5.56094Z" fill="#929292"/>
<path d="M23.9548 10.9372C21.3145 10.9372 18.6741 10.9372 16.0338 10.9372C15.9648 10.9372 15.8959 10.9339 15.8276 10.9406C15.5213 10.9685 15.3613 11.132 15.3572 11.4338C15.3523 11.8314 15.3551 12.2289 15.3558 12.6265C15.3565 13.0953 15.5055 13.2384 15.9938 13.2398C16.2387 13.2404 16.4835 13.2398 16.747 13.2398C16.747 13.6868 16.7449 14.0918 16.747 14.4962C16.7498 14.9032 16.9077 15.0606 17.3291 15.0613C19.1011 15.064 20.8724 15.0633 22.6443 15.0613C23.0816 15.0613 23.2492 14.8896 23.2513 14.4575C23.2527 14.062 23.2513 13.6665 23.2513 13.2391C23.5417 13.2391 23.7907 13.2411 24.0397 13.2391C24.4611 13.235 24.6391 13.0627 24.6425 12.6543C24.6453 12.3076 24.6432 11.961 24.6425 11.6136C24.6425 11.0777 24.4991 10.9366 23.9542 10.9366L23.9548 10.9372Z" fill="#929292"/>
<path d="M4.0191 11.0255C4.79507 9.75079 5.8152 8.75082 7.11055 7.98489C6.46218 7.54325 5.85176 7.1206 5.23237 6.71084C5.04269 6.58534 4.82817 6.60026 4.66263 6.76105C4.02531 7.3784 3.39281 8.0005 2.76652 8.62803C2.61271 8.7827 2.59546 8.98962 2.71686 9.16668C3.13761 9.78268 3.57215 10.3899 4.0191 11.0255Z" fill="#929292"/>
<path d="M3.11761 13.1693C3.07071 13.1652 3.03691 13.1544 3.00587 13.1598C2.31405 13.2812 1.62224 13.3993 0.932492 13.5289C0.63866 13.5845 0.505539 13.7588 0.50347 14.0736C0.499332 14.8769 0.499332 15.6794 0.50347 16.4827C0.50485 16.8287 0.655214 16.9962 0.99388 17.0559C1.36496 17.121 1.73536 17.1882 2.10644 17.2527C2.43821 17.3096 2.77136 17.3639 3.1252 17.4229C2.75135 15.982 2.75342 14.5811 3.11761 13.1693Z" fill="#929292"/>
<path d="M4.0087 19.5205C3.55484 20.1704 3.10927 20.7878 2.68852 21.4214C2.57333 21.5951 2.63127 21.7973 2.78991 21.9533C3.39758 22.5503 4.00249 23.1507 4.61361 23.745C4.81225 23.9376 5.00607 23.9519 5.24266 23.8013C5.45855 23.6636 5.66616 23.5136 5.87791 23.3691C6.27038 23.1012 6.66216 22.8339 7.08635 22.5442C5.79583 21.7803 4.78673 20.7898 4.0087 19.5212V19.5205Z" fill="#929292"/>
<path d="M13.5942 7.12668C13.5108 6.68233 13.4245 6.28071 13.3638 5.8757C13.3142 5.54599 13.2624 5.23392 12.9417 5.03108C12.8493 4.97273 12.781 4.84926 12.7431 4.7414C12.6858 4.58061 12.5844 4.55483 12.4306 4.55687C11.8029 4.56433 11.176 4.56094 10.5483 4.55958C9.8275 4.55755 9.68817 4.48971 9.54885 5.36214C9.45642 5.94015 9.34192 6.51544 9.22949 7.13143C10.6993 6.75356 12.1313 6.7617 13.5942 7.12668Z" fill="#929292"/>
<path d="M21.8573 17.3835C21.858 17.1589 21.8594 16.9344 21.8594 16.7098V15.9677H18.1679C18.1548 16.0023 18.1437 16.0179 18.143 16.0335C18.1403 16.625 18.1375 17.2166 18.1375 17.8082C18.1375 18.1033 18.052 18.4459 18.1748 18.6813C18.2541 18.8332 18.4065 18.9567 18.5734 19.0646C19.337 18.0924 20.5144 17.45 21.8573 17.3835Z" fill="#929292"/>
<path d="M17.7313 20.9357C17.5981 21.0802 17.4622 21.2213 17.3202 21.3556C16.9139 21.7403 16.4559 22.072 16.0096 22.435C16.6525 22.8732 17.3071 23.3196 17.9623 23.7646C18.0796 23.8447 18.1782 23.8929 18.2693 23.9098C17.8823 23.2619 17.6588 22.5075 17.6595 21.7057C17.6595 21.4424 17.685 21.1853 17.7306 20.9357H17.7313Z" fill="#929292"/>
</g>
<path d="M19.5 23.4926C19.5028 20.4388 21.9622 17.9972 25.0328 18C28.0341 18.0028 30.5046 20.4693 30.5 23.4584C30.4954 26.5861 28.0609 29.0037 24.9183 29C21.9437 28.9963 19.4972 26.5104 19.5 23.4926ZM25.7861 24.2858C26.0289 24.2858 26.2477 24.2868 26.4665 24.2858C26.9872 24.2822 27.3519 23.9617 27.3556 23.5046C27.3602 23.0503 26.9909 22.7178 26.4757 22.7142C26.2505 22.7123 26.0243 22.7142 25.7852 22.7142C25.7852 22.4528 25.788 22.2238 25.7852 21.9957C25.7778 21.5017 25.4381 21.1378 24.9922 21.1434C24.5499 21.1499 24.2222 21.5017 24.2148 21.9856C24.2111 22.221 24.2148 22.4556 24.2148 22.7132C24.1031 22.7132 24.0154 22.7132 23.9268 22.7132C23.0285 22.7132 22.65 22.9441 22.6444 23.4926C22.638 24.0411 23.0294 24.2849 23.9157 24.2849C24.0108 24.2849 24.1049 24.2849 24.2148 24.2849C24.2148 24.5453 24.212 24.7734 24.2148 25.0015C24.2213 25.4955 24.561 25.8603 25.0069 25.8548C25.4473 25.8492 25.7769 25.4946 25.7852 25.0126C25.7889 24.7771 25.7852 24.5426 25.7852 24.2849L25.7861 24.2858Z" fill="#929292"/>
<defs>
<clipPath id="clip0_105_4150">
<rect width="26" height="26" fill="white" transform="translate(0.5)"/>
</clipPath>
</defs>
</svg>
