<svg width="12" height="14" viewBox="0 0 12 14" fill="none" xmlns="http://www.w3.org/2000/svg">
<g clip-path="url(#clip0_105_78)">
<path d="M8.39292 0C8.42368 0.0166865 8.45444 0.0333731 8.4852 0.045888C8.78253 0.175209 8.93837 0.481824 8.87276 0.803039C8.81124 1.09714 8.54876 1.30989 8.23913 1.30989C6.23161 1.30989 4.22409 1.30989 2.21657 1.30989C1.7839 1.30989 1.4517 1.5435 1.34097 1.93564C1.31226 2.03367 1.29996 2.14213 1.29996 2.24434C1.29791 5.41061 1.29791 8.57896 1.29996 11.7452C1.29996 12.3126 1.66702 12.6838 2.22887 12.6838C4.23229 12.6838 6.23366 12.6838 8.23708 12.6838C8.49955 12.6838 8.69641 12.8027 8.81534 13.0364C8.93427 13.2679 8.91787 13.5036 8.77023 13.7205C8.64719 13.8999 8.47494 13.9958 8.25758 13.9958C6.19265 13.9958 4.12566 14 2.06073 13.9958C1.08465 13.9917 0.159838 13.1448 0.0368034 12.1603C0.0183481 12.0206 0.0101458 11.8787 0.0101458 11.739C0.00399407 8.57688 0.014247 5.41269 -0.000107093 2.2506C-0.00420825 1.08462 0.834479 0.158522 1.83926 0.022944C1.85567 0.0208582 1.87002 0.00834326 1.88643 0H8.39292Z" fill="black"/>
<path d="M9.77716 6.34314C9.72179 6.28474 9.69104 6.24928 9.65618 6.21382C9.0492 5.59433 8.43813 4.97902 7.83321 4.35744C7.47231 3.98617 7.60764 3.39588 8.08543 3.24779C8.29869 3.18104 8.5017 3.21859 8.6801 3.36251C8.72111 3.39588 8.76007 3.43551 8.79698 3.47514C9.77921 4.47425 10.7614 5.47127 11.7437 6.47038C12.0841 6.81662 12.0841 7.18164 11.7416 7.52997C10.7573 8.53116 9.77101 9.53235 8.78673 10.5356C8.59808 10.7296 8.38071 10.8214 8.12029 10.7546C7.6179 10.6232 7.46821 10.0142 7.84346 9.63039C8.44633 9.01299 9.0533 8.39976 9.65823 7.78444C9.69104 7.75107 9.72385 7.71352 9.77716 7.65512C9.70334 7.65512 9.65618 7.65512 9.61106 7.65512C7.98085 7.65512 6.35064 7.65512 4.71838 7.65512C4.38208 7.65512 4.1032 7.40899 4.06629 7.08778C4.02733 6.7457 4.23034 6.44326 4.56048 6.35983C4.62405 6.34314 4.69377 6.34314 4.75939 6.34314C6.37114 6.34314 7.98495 6.34314 9.59671 6.34314H9.77716Z" fill="black"/>
</g>
<defs>
<clipPath id="clip0_105_78">
<rect width="12" height="14" fill="white"/>
</clipPath>
</defs>
</svg>
