<svg width="105" height="32" viewBox="0 0 105 32" fill="none" xmlns="http://www.w3.org/2000/svg">
<g clip-path="url(#clip0_256_213)">
<path d="M98.8723 9.10787C92.7261 9.08955 86.5799 9.101 80.4337 9.101C79.8614 9.101 79.2845 9.06895 78.7236 9.21316C77.7789 9.45579 77.1997 10.1974 77.2227 11.1039C77.248 12.0401 77.8272 12.6787 78.8385 12.8778C79.2914 12.9671 79.7511 12.9556 80.2085 12.9556C82.1162 12.9579 84.0263 12.9556 85.934 12.9556C88.598 12.9602 88.837 13.1891 88.8393 15.7848C88.8416 19.9096 88.8393 24.0343 88.8393 28.1614C88.8393 28.8046 88.8393 29.4501 89.0462 30.0727C89.368 31.0524 90.1334 31.6017 91.0964 31.5559C92.0825 31.5079 92.71 30.9036 92.8916 29.8209C92.9743 29.3333 92.9559 28.8389 92.9559 28.3468C92.9559 24.032 92.949 19.7173 92.9605 15.4026C92.9651 13.3196 93.3306 12.9694 95.4383 12.9579C96.8128 12.9511 98.1873 12.9579 99.5618 12.9556C101.437 12.9511 103.368 13.2326 104.998 11.9371V10.1196C103.136 8.71187 100.962 9.11473 98.87 9.10787H98.8723Z" fill="#FAFAFA" fill-opacity="0.5"/>
<path d="M102.343 8.72119C94.7418 8.74866 87.1406 8.73035 79.5418 8.7395C77.7788 8.7395 76.8066 9.61161 76.825 11.104C76.8411 12.5621 77.7122 13.3083 79.5303 13.3289C82.0518 13.3564 84.5732 13.3724 87.0924 13.3289C88.1795 13.3106 88.5634 13.702 88.5519 14.7939C88.5059 19.3375 88.5243 23.8811 88.5404 28.4271C88.5404 29.0657 88.5818 29.7203 88.7266 30.3406C88.9587 31.3318 89.6598 31.8743 90.6803 31.9704C92.2594 32.1169 93.3029 31.1143 93.3075 29.4205C93.319 24.6502 93.3167 19.8777 93.3144 15.1075C93.3144 13.4205 93.3833 13.3472 95.1394 13.3472C97.5827 13.3472 100.028 13.3221 102.472 13.3427C103.607 13.3518 104.471 12.965 105.002 11.9418C103.373 13.2374 101.442 12.9535 99.5663 12.9604C98.1918 12.965 96.8173 12.9558 95.4428 12.9627C93.3328 12.9741 92.9696 13.3243 92.965 15.4073C92.9558 19.722 92.965 24.0368 92.9604 28.3515C92.9604 28.8437 92.9788 29.3381 92.8961 29.8256C92.7145 30.9083 92.0847 31.5126 91.1009 31.5607C90.1379 31.6065 89.3725 31.0594 89.0507 30.0774C88.8461 29.4548 88.8461 28.8116 88.8438 28.1661C88.8438 24.0414 88.8438 19.9166 88.8438 15.7896C88.8438 13.1962 88.6048 12.965 85.9385 12.9604C84.0308 12.9581 82.1207 12.9604 80.213 12.9604C79.7556 12.9604 79.2958 12.9718 78.843 12.8826C77.8294 12.6834 77.2525 12.0448 77.2272 11.1086C77.2019 10.2022 77.7834 9.46053 78.7281 9.2179C79.289 9.0737 79.8659 9.10574 80.4382 9.10574C86.5844 9.10574 92.7306 9.09201 98.8767 9.11261C100.968 9.11948 103.143 8.71661 105.005 10.1243C104.4 9.13092 103.534 8.72348 102.347 8.72577L102.343 8.72119Z" fill="#FAFAFA" fill-opacity="0.5"/>
<path d="M104.025 28.0926C103.115 27.3418 101.991 27.3418 101.251 28.1224C100.546 28.8663 100.525 30.2946 101.21 31.034C101.911 31.7939 103.145 31.8672 104.014 31.2308C104.331 30.9996 104.476 30.5029 105 30.5762V28.7587C104.474 28.8297 104.329 28.3421 104.028 28.0926H104.025Z" fill="#FAFAFA" fill-opacity="0.5"/>
<path d="M102.118 27.3028C101.024 27.5958 100.417 28.3969 100.403 29.5483C100.389 30.6447 100.865 31.4482 101.911 31.8464C102.931 32.2379 103.936 31.8625 104.699 30.869C104.784 30.7592 104.899 30.6722 105.002 30.5738C104.478 30.5005 104.333 30.9949 104.016 31.2284C103.147 31.8647 101.913 31.7915 101.212 31.0316C100.529 30.2922 100.55 28.8639 101.253 28.12C101.994 27.3394 103.118 27.3394 104.028 28.0902C104.329 28.3374 104.476 28.8273 105 28.7563C104.915 28.6373 104.825 28.5205 104.743 28.4015C104.108 27.4699 103.276 26.9915 102.118 27.3028Z" fill="#FAFAFA" fill-opacity="0.5"/>
<path d="M61.3791 11.564C60.4551 9.5795 58.8324 8.74173 56.6948 8.74173C48.0616 8.74173 39.4284 8.74173 30.7976 8.74173C22.1276 8.74173 13.4554 8.73486 4.78548 8.74402C1.97442 8.74631 0.0229919 10.6736 0.0137979 13.4502C-0.00229161 18.0693 -0.00459011 22.6908 0.0137979 27.31C0.0252904 30.0934 1.87558 31.9383 4.68435 31.9475C11.2167 31.9681 17.7467 31.9658 24.279 31.952C26.6419 31.9475 28.1382 30.4733 28.1842 28.1271C28.2187 26.3097 28.2118 24.4922 28.1911 22.6748C28.1612 20.118 26.8488 18.6965 24.2905 18.621C21.6955 18.5432 19.0959 18.5661 16.4986 18.6164C14.8046 18.6507 13.899 19.5755 13.9565 21.0336C14.0094 22.3955 14.869 23.0731 16.5377 23.128C18.1765 23.1829 19.8246 22.9563 21.4519 23.2722C23.0218 23.5743 23.7964 24.7143 23.5504 26.241C23.4171 27.0673 23.0815 27.4336 22.1345 27.4221C17.2456 27.3718 12.3567 27.4084 7.46783 27.4015C5.40607 27.3992 4.62229 26.6347 4.6085 24.6067C4.59011 21.9171 4.59241 19.2299 4.6016 16.5403C4.61079 14.0178 5.32103 13.3174 7.88845 13.3174C23.1298 13.3151 38.3711 13.3174 53.6102 13.322C54.1044 13.322 54.6031 13.3586 55.0881 13.441C56.2098 13.6356 56.8809 14.2994 56.8878 15.4485C56.9062 18.7423 56.9223 22.0362 56.8534 25.33C56.8258 26.6691 56.0994 27.3603 54.741 27.3741C49.5464 27.4267 44.3518 27.4153 39.1572 27.4244C38.4102 27.4244 38.0769 27.1085 38.0976 26.3097C38.1413 24.5311 38.1114 22.7503 38.0907 20.9695C38.0792 19.8799 37.6195 19.0673 36.5116 18.7354C34.8659 18.241 33.6017 19.2505 33.5351 21.1618C33.4684 23.0502 33.6822 24.9363 33.5351 26.8361C33.3121 29.7111 35.4796 31.9566 38.401 31.9681C44.5518 31.9909 50.7003 31.9909 56.8511 31.9681C59.7127 31.9566 61.74 29.9217 61.7492 27.0765C61.7629 22.5329 61.7354 17.9869 61.7285 13.4433C61.7285 12.7932 61.6549 12.1638 61.3768 11.564H61.3791Z" fill="#FAFAFA" fill-opacity="0.5"/>
<path d="M69.2698 8.7302C67.7804 8.73936 66.9277 9.70989 66.9185 11.4632C66.9047 14.4137 66.9139 17.3642 66.9139 20.3147C66.9139 23.2653 66.9047 26.2157 66.9162 29.1663C66.9231 30.9608 67.7321 31.9336 69.1963 31.968C70.6972 32.0023 71.7085 30.97 71.7154 29.2258C71.7407 23.2859 71.7407 17.3459 71.7085 11.4083C71.6994 9.69157 70.7478 8.71876 69.2675 8.72562L69.2698 8.7302Z" fill="#FAFAFA" fill-opacity="0.5"/>
<path d="M69.1894 0.931488C67.3966 0.906309 66.2266 2.01418 66.1853 3.77441C66.1416 5.59644 67.3069 6.81876 69.1043 6.83936C70.8811 6.85996 72.1499 5.61704 72.1476 3.85681C72.1453 2.13549 70.95 0.954378 69.1894 0.929199V0.931488Z" fill="#FAFAFA" fill-opacity="0.5"/>
<path d="M21.383 6.77991C21.9737 6.77991 22.0197 6.37018 22.0151 5.91697C22.0059 5.09064 22.0128 4.26432 22.0128 3.10609C23.0402 4.33528 23.8631 5.31954 24.6836 6.3038C24.9365 6.60595 25.2077 6.88749 25.649 6.74329C26.0673 6.60595 26.0397 6.21682 26.042 5.88492C26.0535 4.52297 26.0512 3.15874 26.042 1.79451C26.0397 1.339 25.9202 0.938425 25.3433 0.97276C24.8307 1.00481 24.7733 1.38478 24.7756 1.79222C24.7802 2.63914 24.7756 3.48606 24.7756 4.62827C23.7229 3.36475 22.877 2.3576 22.0381 1.34129C21.7967 1.0483 21.5117 0.890357 21.1416 1.02083C20.7762 1.14901 20.8015 1.49236 20.7992 1.78764C20.79 3.1885 20.7923 4.58935 20.7969 5.99021C20.7969 6.39078 20.8497 6.77991 21.383 6.7822V6.77991Z" fill="#FAFAFA" fill-opacity="0.5"/>
<path d="M53.6745 6.62648C55.8075 7.48256 57.5268 6.34723 57.5544 4.07427C57.5567 3.81103 57.5544 3.54551 57.5544 3.28228C57.5544 2.79244 57.5475 2.3003 57.5544 1.81046C57.5613 1.34122 57.4417 0.968115 56.8786 0.974982C56.3109 0.981849 56.2189 1.387 56.2166 1.83564C56.212 2.66654 56.2028 3.49744 56.212 4.32605C56.2212 5.17069 55.8834 5.74522 54.9755 5.75209C54.017 5.75896 53.6446 5.17069 53.6515 4.27799C53.6584 3.44708 53.6469 2.61618 53.6515 1.78757C53.6561 1.30917 53.5159 0.95667 52.9574 0.972693C52.4678 0.986427 52.3092 1.32291 52.3092 1.7395C52.3092 2.7581 52.2885 3.77899 52.3529 4.7953C52.408 5.64451 52.847 6.29916 53.6699 6.62877L53.6745 6.62648Z" fill="#FAFAFA" fill-opacity="0.5"/>
<path d="M28.8944 6.50059C29.4621 6.76154 30.0758 6.7684 30.6872 6.8531C30.9791 6.80961 31.2848 6.78443 31.5813 6.71576C32.4915 6.50975 33.1282 5.98328 33.1305 5.01962C33.1305 4.12005 32.4616 3.72634 31.6595 3.53636C31.2526 3.44022 30.8389 3.36926 30.4321 3.2777C30.085 3.19988 29.7448 3.08543 29.7678 2.64365C29.7885 2.22477 30.1241 2.07827 30.462 2.00045C30.9584 1.886 31.4457 1.989 31.9169 2.16754C32.2387 2.28886 32.6042 2.4674 32.788 2.01418C32.9811 1.53578 32.6271 1.33207 32.2456 1.19015C31.3193 0.844511 30.3884 0.807888 29.4713 1.20846C28.7795 1.51061 28.4025 2.03021 28.4232 2.80388C28.4439 3.61189 28.9289 4.02849 29.6575 4.22534C30.17 4.36268 30.6918 4.47255 31.2067 4.59845C31.5193 4.67398 31.8181 4.80674 31.7951 5.17527C31.7744 5.52549 31.471 5.68342 31.1676 5.74065C30.5148 5.86425 29.8781 5.75209 29.2667 5.5026C28.9381 5.36983 28.5956 5.20503 28.4002 5.65596C28.1933 6.13207 28.5243 6.33121 28.8967 6.50059H28.8944Z" fill="#FAFAFA" fill-opacity="0.5"/>
<path d="M46.0734 2.01185C46.8732 1.93632 47.1537 2.22931 47.0985 3.02587C47.0364 3.92544 47.0778 4.83417 47.087 5.73832C47.0916 6.23503 47.0801 6.79125 47.8041 6.77523C48.473 6.76149 48.4224 6.23503 48.427 5.7841C48.4339 5.06765 48.4845 4.34662 48.4178 3.63703C48.3167 2.55434 48.4408 1.76464 49.8544 2.01185C50.1624 2.0645 50.4704 1.94089 50.4681 1.52888C50.4658 1.13059 50.1992 1.02759 49.859 1.02759C49.174 1.02759 48.4914 1.02759 47.8064 1.02759V1.02301C47.2364 1.02301 46.6664 1.00928 46.0964 1.02759C45.6711 1.04132 45.0528 0.869649 45.0873 1.57237C45.1172 2.17208 45.6987 2.05076 46.078 2.01643L46.0734 2.01185Z" fill="#FAFAFA" fill-opacity="0.5"/>
<path d="M64.2085 1.02566C63.5213 1.02108 62.834 1.02566 62.1468 1.02566V1.02108C61.5744 1.02108 60.9998 1.00277 60.4275 1.02795C60.0069 1.04626 59.3748 0.856272 59.4116 1.57272C59.4437 2.18159 60.0414 2.0557 60.4091 2.00763C61.3216 1.89089 61.5124 2.28918 61.4549 3.10177C61.386 4.04254 61.4457 4.99476 61.4365 5.94011C61.4319 6.41622 61.563 6.78245 62.1169 6.77787C62.6754 6.77101 62.7903 6.3773 62.7926 5.91951C62.7949 5.16185 62.8386 4.40191 62.7835 3.64883C62.7076 2.60963 62.7375 1.7444 64.197 2.01221C64.5004 2.06714 64.8337 1.93667 64.8314 1.53381C64.8314 1.14697 64.5441 1.03481 64.2062 1.03252L64.2085 1.02566Z" fill="#FAFAFA" fill-opacity="0.5"/>
<path d="M35.544 2.00742C36.53 1.87466 36.6863 2.36679 36.6358 3.18625C36.5806 4.08811 36.6243 4.99454 36.6243 5.89869C36.6243 6.32902 36.6358 6.76622 37.2334 6.78224C37.8126 6.79597 37.8999 6.40227 37.8999 5.94447C37.8999 5.22802 37.9344 4.50928 37.893 3.7974C37.831 2.717 37.7597 1.68925 39.3917 2.00742C39.6698 2.06235 39.9226 1.91357 39.941 1.57709C39.9617 1.2017 39.7502 1.03002 39.3848 1.03002C38.6998 1.03002 38.0172 1.03002 37.3322 1.03002V1.02544C36.7231 1.02544 36.1163 1.014 35.5072 1.03002C35.1142 1.03918 34.5602 0.89955 34.5832 1.54276C34.6062 2.16994 35.1739 2.06235 35.5463 2.012L35.544 2.00742Z" fill="#FAFAFA" fill-opacity="0.5"/>
<path d="M17.5582 6.78016C18.0179 6.81678 18.2845 6.56957 18.296 6.11864C18.3144 5.40219 18.3006 4.68574 18.3006 3.97158H18.3098C18.3098 3.2185 18.319 2.46314 18.3075 1.71006C18.3006 1.28431 18.1214 0.973007 17.6387 0.970718C17.1675 0.968429 16.9606 1.23395 16.9629 1.68717C16.9652 3.1567 16.9652 4.62623 16.9652 6.09804C16.9652 6.5009 17.156 6.75269 17.5605 6.78245L17.5582 6.78016Z" fill="#FAFAFA" fill-opacity="0.5"/>
<path d="M42.5659 6.78006C43.0049 6.76174 43.1474 6.48478 43.1474 6.09565C43.1474 5.37691 43.1474 4.65588 43.1474 3.93714C43.1474 3.17948 43.1497 2.42183 43.1474 1.66646C43.1474 1.28649 43.0279 0.995791 42.5774 0.972901C42.0924 0.947723 41.874 1.2018 41.8717 1.65502C41.8671 3.13141 41.8671 4.60781 41.8717 6.0842C41.8717 6.53284 42.0832 6.80294 42.5682 6.78234L42.5659 6.78006Z" fill="#FAFAFA" fill-opacity="0.5"/>
<path d="M73.1497 0C72.7934 0.0297568 72.5911 0.222031 72.5774 0.569957C72.5613 0.954506 72.7268 1.23147 73.1543 1.23376C73.5151 1.23605 73.7197 0.979685 73.7473 0.672961C73.7818 0.29299 73.545 0.0549356 73.152 0L73.1497 0Z" fill="#FAFAFA" fill-opacity="0.5"/>
</g>
<defs>
<clipPath id="clip0_256_213">
<rect width="105" height="32" fill="white"/>
</clipPath>
</defs>
</svg>
