<svg width="46" height="38" viewBox="0 0 46 38" fill="none" xmlns="http://www.w3.org/2000/svg">
<path d="M45.7193 2.25293C45.0311 0.76619 43.8224 0.138571 42.2301 0.138571C35.7996 0.138571 29.369 0.138571 22.9402 0.138571C16.4823 0.138571 10.0226 0.133426 3.56465 0.140285C1.47079 0.142 0.0172371 1.58587 0.0103888 3.66422C-0.00159574 7.1247 -0.00330782 10.5869 0.0103888 14.0474C0.0189491 16.1326 1.39717 17.5147 3.48932 17.5216C8.35504 17.537 13.219 17.5353 18.0848 17.525C19.8448 17.5216 20.9593 16.4172 20.9936 14.6596C21.0192 13.298 21.0141 11.9364 20.9987 10.5749C20.9764 8.65945 19.9988 7.59455 18.0933 7.53796C16.1604 7.47966 14.224 7.49681 12.2894 7.53454C11.0276 7.56026 10.353 8.25304 10.3958 9.34537C10.4352 10.3657 11.0755 10.8733 12.3185 10.9144C13.5392 10.9556 14.7668 10.7858 15.9789 11.0225C17.1482 11.2488 17.7252 12.1028 17.542 13.2466C17.4427 13.8656 17.1928 14.14 16.4874 14.1314C12.8458 14.0937 9.20422 14.1211 5.56264 14.116C4.02691 14.1143 3.4431 13.5415 3.43282 12.0222C3.41913 10.0073 3.42084 7.9941 3.42769 5.97921C3.43454 4.08949 3.96357 3.56476 5.87595 3.56476C17.2287 3.56304 28.5815 3.56476 39.9325 3.56819C40.3006 3.56819 40.6721 3.59562 41.0334 3.65736C41.8689 3.80311 42.3688 4.30041 42.3739 5.16124C42.3876 7.62885 42.3996 10.0965 42.3483 12.5641C42.3277 13.5672 41.7867 14.0851 40.7749 14.0954C36.9056 14.1348 33.0363 14.1263 29.167 14.1331C28.6106 14.1331 28.3623 13.8965 28.3777 13.298C28.4103 11.9656 28.388 10.6315 28.3726 9.29736C28.364 8.48111 28.0216 7.87235 27.1964 7.62371C25.9706 7.25331 25.0289 8.00954 24.9793 9.4414C24.9296 10.8561 25.0888 12.2691 24.9793 13.6924C24.8132 15.8462 26.4277 17.5284 28.6037 17.537C33.1852 17.5542 37.765 17.5542 42.3465 17.537C44.4781 17.5284 45.9881 16.004 45.995 13.8725C46.0052 10.4686 45.9847 7.06296 45.9796 3.65907C45.9796 3.17207 45.9248 2.70049 45.7176 2.25121L45.7193 2.25293Z" fill="white" fill-opacity="0.5"/>
<path d="M32.622 20.8516C28.0439 20.8379 23.4658 20.8465 18.8877 20.8465C18.4614 20.8465 18.0317 20.8225 17.6139 20.9305C16.9103 21.1123 16.4788 21.6679 16.496 22.3469C16.5148 23.0483 16.9462 23.5267 17.6995 23.6759C18.0368 23.7428 18.3792 23.7342 18.7199 23.7342C20.141 23.7359 21.5637 23.7342 22.9847 23.7342C24.969 23.7376 25.1471 23.9091 25.1488 25.8537C25.1505 28.9438 25.1488 32.0339 25.1488 35.1257C25.1488 35.6075 25.1488 36.0911 25.3029 36.5575C25.5426 37.2915 26.1127 37.703 26.83 37.6687C27.5645 37.6327 28.0319 37.18 28.1672 36.3689C28.2288 36.0036 28.2151 35.6332 28.2151 35.2646C28.2151 32.0322 28.21 28.7997 28.2185 25.5673C28.222 24.0069 28.4942 23.7445 30.0641 23.7359C31.088 23.7308 32.1118 23.7359 33.1356 23.7342C34.5327 23.7308 35.9708 23.9417 37.1847 22.9711V21.6096C35.7979 20.5549 34.1783 20.8568 32.6203 20.8516H32.622Z" fill="white" fill-opacity="0.5"/>
<path d="M35.2072 20.562C29.5454 20.5826 23.8836 20.5689 18.2234 20.5757C16.9103 20.5757 16.1861 21.2291 16.1998 22.3471C16.2118 23.4395 16.8606 23.9985 18.2149 24.0139C20.093 24.0345 21.9712 24.0465 23.8476 24.0139C24.6574 24.0002 24.9433 24.2934 24.9348 25.1114C24.9005 28.5153 24.9142 31.9192 24.9262 35.3248C24.9262 35.8032 24.957 36.2937 25.0649 36.7584C25.2378 37.5009 25.76 37.9073 26.5202 37.9793C27.6963 38.0891 28.4736 37.338 28.4771 36.069C28.4856 32.4954 28.4839 28.92 28.4822 25.3463C28.4822 24.0825 28.5336 24.0276 29.8416 24.0276C31.6615 24.0276 33.4832 24.0088 35.3031 24.0242C36.1489 24.0311 36.7926 23.7413 37.1881 22.9748C35.9742 23.9453 34.5361 23.7327 33.139 23.7378C32.1152 23.7413 31.0914 23.7344 30.0676 23.7396C28.4959 23.7481 28.2254 24.0105 28.222 25.571C28.2151 28.8034 28.222 32.0358 28.2185 35.2682C28.2185 35.6369 28.2322 36.0073 28.1706 36.3726C28.0353 37.1837 27.5662 37.6364 26.8335 37.6724C26.1161 37.7067 25.546 37.2968 25.3063 36.5612C25.1539 36.0948 25.1539 35.6129 25.1522 35.1293C25.1522 32.0392 25.1522 28.9491 25.1522 25.8573C25.1522 23.9145 24.9741 23.7413 22.9881 23.7378C21.5671 23.7361 20.1444 23.7378 18.7234 23.7378C18.3827 23.7378 18.0402 23.7464 17.703 23.6795C16.9479 23.5303 16.5182 23.0519 16.4994 22.3506C16.4806 21.6715 16.9137 21.1159 17.6174 20.9341C18.0351 20.8261 18.4648 20.8501 18.8911 20.8501C23.4692 20.8501 28.0473 20.8398 32.6254 20.8552C34.1834 20.8604 35.803 20.5586 37.1898 21.6132C36.7395 20.869 36.0941 20.5637 35.2106 20.5654L35.2072 20.562Z" fill="white" fill-opacity="0.5"/>
<path d="M36.4605 35.0729C35.7825 34.5104 34.9453 34.5104 34.394 35.0952C33.8684 35.6525 33.853 36.7225 34.3632 37.2764C34.8853 37.8457 35.8047 37.9006 36.4519 37.4239C36.6882 37.2507 36.796 36.8786 37.1864 36.9335V35.5719C36.7943 35.6251 36.6864 35.2598 36.4622 35.0729H36.4605Z" fill="white" fill-opacity="0.5"/>
<path d="M35.0377 34.4826C34.2228 34.7021 33.7708 35.3023 33.7605 36.1649C33.7502 36.9863 34.1046 37.5882 34.8836 37.8865C35.6438 38.1798 36.392 37.8985 36.9604 37.1543C37.0237 37.072 37.1093 37.0068 37.1864 36.9331C36.796 36.8782 36.6882 37.2486 36.4519 37.4235C35.8047 37.9002 34.8853 37.8454 34.3632 37.2761C33.8547 36.7222 33.8701 35.6521 34.394 35.0948C34.9453 34.5101 35.7825 34.5101 36.4605 35.0725C36.6847 35.2577 36.7943 35.6247 37.1847 35.5715C37.1213 35.4824 37.0545 35.3949 36.9929 35.3057C36.5204 34.6078 35.9006 34.2494 35.0377 34.4826Z" fill="white" fill-opacity="0.5"/>
<path d="M10.5722 20.5674C9.46276 20.5743 8.82758 21.3014 8.82073 22.6149C8.81046 24.8253 8.81731 27.0357 8.81731 29.2461C8.81731 31.4565 8.81046 33.6668 8.81902 35.8772C8.82415 37.2216 9.4268 37.9504 10.5174 37.9762C11.6354 38.0019 12.3887 37.2285 12.3938 35.9218C12.4127 31.4719 12.4127 27.022 12.3887 22.5737C12.3818 21.2876 11.673 20.5588 10.5705 20.564L10.5722 20.5674Z" fill="white" fill-opacity="0.5"/>
</svg>
