<svg width="31" height="23" viewBox="0 0 31 23" fill="none" xmlns="http://www.w3.org/2000/svg">
<g clip-path="url(#clip0_105_65)">
<path d="M15.4643 4.59686C11.0811 4.59686 6.70572 4.59686 2.32244 4.59686C1.21275 4.59686 0.22988 3.79673 0.0396469 2.75341C-0.166438 1.60027 0.459744 0.502046 1.56151 0.133356C1.7993 0.0470669 2.05294 0 2.30659 0C11.1048 0 19.9031 0 28.7014 0C29.9775 0 30.9921 1.01978 31 2.29059C31 3.56924 29.9775 4.59686 28.6776 4.59686C24.2705 4.59686 19.8635 4.59686 15.4643 4.59686Z" fill="#EAEAEA"/>
<path d="M13.2846 13.7984C9.63847 13.7984 6.00027 13.7984 2.35414 13.7984C1.11763 13.7984 0.134764 12.9198 0.0158681 11.7353C-0.103027 10.5194 0.689609 9.46042 1.90234 9.22509C2.04502 9.19371 2.18769 9.20156 2.33829 9.20156C9.6464 9.20156 16.9624 9.20156 24.2705 9.20156C25.5784 9.20156 26.6009 10.2135 26.6088 11.4921C26.6088 12.7708 25.5863 13.7984 24.2864 13.7984C20.6165 13.7984 16.9545 13.7984 13.2846 13.7984Z" fill="#EAEAEA"/>
<path d="M8.90925 23.0002C6.7295 23.0002 4.55767 23.0002 2.37792 23.0002C1.14934 23.0002 0.14269 22.1451 0.0237942 20.9998C-0.110954 19.7447 0.64205 18.7014 1.87856 18.4347C2.02916 18.4033 2.18769 18.4033 2.34622 18.4033C6.72157 18.4033 11.1048 18.4033 15.4802 18.4033C16.8039 18.4033 17.8185 19.4153 17.8185 20.7253C17.8185 22.0039 16.788 23.0002 15.4723 23.0002C13.2846 23.0002 11.0969 23.0002 8.90132 23.0002H8.90925Z" fill="#EAEAEA"/>
</g>
<defs>
<clipPath id="clip0_105_65">
<rect width="31" height="23" fill="white"/>
</clipPath>
</defs>
</svg>
