<svg width="17" height="15" viewBox="0 0 17 15" fill="none" xmlns="http://www.w3.org/2000/svg">
<mask id="path-1-outside-1_105_2446" maskUnits="userSpaceOnUse" x="-0.499512" y="0" width="18" height="15" fill="black">
<rect fill="white" x="-0.499512" width="18" height="15"/>
<path d="M0.500389 11.9431C0.648108 12.0578 0.787065 12.1875 0.945216 12.2848C1.9442 12.9008 3.0354 13.2741 4.16583 13.5395C5.82997 13.9303 7.51915 14.0395 9.22084 13.9883C10.8032 13.9405 12.3618 13.7315 13.8782 13.2511C14.7052 12.9891 15.4993 12.6504 16.2321 12.17C16.4211 12.0459 16.5179 11.9047 16.4979 11.664C16.4762 11.4051 16.4937 11.1427 16.4929 10.882C16.4921 10.6594 16.4228 10.5868 16.2025 10.5843C15.9525 10.5813 15.7025 10.5834 15.453 10.5834C15.3971 10.5834 15.3412 10.5834 15.2657 10.5834C15.2657 10.5041 15.2657 10.4418 15.2657 10.3799C15.2598 9.45415 15.2969 8.52539 15.2385 7.60261C15.1284 5.86199 14.3247 4.50064 12.9184 3.52155C12.1039 2.95457 11.1921 2.66873 10.2052 2.63972C10.1539 2.63801 10.103 2.63204 10.0638 2.62905C10.0638 2.40252 10.0583 2.18622 10.0646 1.97078C10.0821 1.38332 9.74412 1.01216 9.16826 1.00448C8.72051 0.998507 8.27277 0.998507 7.82502 1.00448C7.24791 1.01216 6.91199 1.38119 6.9291 1.9712C6.93536 2.18323 6.92994 2.39527 6.92994 2.62393C6.73673 2.64057 6.521 2.65337 6.30609 2.67854C4.04732 2.94475 2.18122 4.76174 1.81192 7.06464C1.75934 7.39399 1.73639 7.73102 1.73138 8.06464C1.7197 8.83085 1.72763 9.59749 1.72763 10.3637V10.583C1.58617 10.583 1.45389 10.583 1.32119 10.583C1.14927 10.583 0.977348 10.5877 0.805843 10.5817C0.67565 10.577 0.572996 10.6175 0.499971 10.7289L0.500389 11.9431ZM12.7281 10.577C12.7194 10.4153 12.7281 10.2639 12.6998 10.1197C12.6176 9.69476 12.2758 9.43879 11.8068 9.43879C9.59974 9.43793 7.39229 9.43879 5.18526 9.43879C5.15397 9.43879 5.12267 9.43879 5.09179 9.44049C4.62234 9.46439 4.28685 9.81549 4.27558 10.2959C4.27349 10.3889 4.27558 10.4823 4.27558 10.577H2.17621C2.17204 10.5352 2.1662 10.5041 2.1662 10.4733C2.1662 9.63759 2.16119 8.80227 2.16745 7.96652C2.17454 7.03051 2.41573 6.16063 2.90521 5.36626C3.21025 4.87138 3.58747 4.44476 4.06485 4.07786C4.07445 4.15551 4.08404 4.21097 4.08822 4.26728C4.15081 5.08938 4.21215 5.91148 4.27558 6.73358C4.30354 7.09706 4.52887 7.31677 4.88482 7.32573C5.07719 7.33085 5.26997 7.32701 5.46276 7.32701C5.95015 7.32658 6.16964 7.10389 6.17006 6.60773C6.17089 5.59109 6.17006 4.57488 6.17006 3.55824C6.17006 3.45201 6.16463 3.34493 6.17381 3.23912C6.17715 3.20286 6.21513 3.14271 6.24225 3.13929C6.48302 3.11114 6.72547 3.09365 6.9725 3.07231C6.98168 3.12991 6.98919 3.1602 6.99086 3.19091C7.03509 4.08895 7.07807 4.98699 7.12314 5.88546C7.1607 6.6346 7.19158 7.3846 7.24457 8.13247C7.2742 8.54928 7.60052 8.86328 8.00654 8.88375C8.33369 8.90039 8.66251 8.89911 8.98966 8.88375C9.35145 8.86669 9.65774 8.59664 9.73577 8.24083C9.76498 8.10688 9.76832 7.96652 9.775 7.82872C9.8426 6.47377 9.90811 5.11839 9.97488 3.76344C9.98573 3.5416 9.9995 3.32018 10.0133 3.07487C10.2332 3.09194 10.4389 3.11711 10.645 3.12052C10.7999 3.12308 10.8282 3.19305 10.827 3.33682C10.8199 4.04458 10.8236 4.75235 10.8241 5.46011C10.8241 5.87522 10.8186 6.29032 10.8266 6.70542C10.8337 7.07658 11.0682 7.31635 11.4237 7.32573C11.6578 7.33213 11.8923 7.33213 12.1264 7.32573C12.4636 7.31592 12.691 7.09194 12.7177 6.74894C12.7711 6.05952 12.822 5.36967 12.875 4.68025C12.89 4.48699 12.908 4.29373 12.9255 4.09023C12.9585 4.1073 12.9739 4.11199 12.9852 4.12138C14.0618 4.99851 14.6994 6.13674 14.795 7.53904C14.8617 8.51899 14.8212 9.50705 14.8279 10.4913C14.8279 10.5169 14.8217 10.542 14.8171 10.5774L12.7281 10.577ZM16.056 11.0395C16.056 11.2187 16.0443 11.3791 16.0593 11.5373C16.0739 11.696 16.0176 11.7852 15.8845 11.8663C15.1605 12.307 14.3856 12.6244 13.5811 12.868C12.0742 13.324 10.5299 13.5181 8.96254 13.5484C7.15903 13.5834 5.37638 13.429 3.63212 12.9324C2.72745 12.6751 1.8549 12.336 1.05455 11.824C1.0099 11.7954 0.946467 11.7481 0.944381 11.7067C0.933532 11.4861 0.939374 11.2652 0.939374 11.0395H16.056ZM7.51414 4.90764C7.46573 3.93068 7.41524 2.95329 7.36892 1.9759C7.35181 1.61114 7.49912 1.45371 7.85339 1.45158C8.27986 1.44902 8.70674 1.44902 9.13321 1.45158C9.4975 1.45371 9.64188 1.60815 9.62394 1.98528C9.56135 3.30269 9.49542 4.61967 9.43032 5.93665C9.39652 6.62181 9.36564 7.30696 9.32725 7.99211C9.31014 8.30227 9.1595 8.44177 8.85864 8.44433C8.63497 8.44647 8.4113 8.44519 8.18764 8.44433C7.81292 8.44348 7.68147 8.31677 7.66019 7.93495C7.65685 7.87138 7.65602 7.80739 7.6531 7.74382C7.60678 6.79843 7.56046 5.85303 7.51414 4.90764ZM4.71749 10.5783C4.71749 10.452 4.7083 10.3407 4.71957 10.2315C4.73668 10.0634 4.86771 9.92727 5.0317 9.89741C5.10306 9.88461 5.1765 9.88205 5.24911 9.88205C7.41357 9.88119 9.57762 9.88119 11.7421 9.88205C11.8147 9.88205 11.8886 9.88375 11.9595 9.89698C12.1239 9.92855 12.2353 10.0352 12.2666 10.1982C12.29 10.3189 12.2712 10.4477 12.2712 10.5783H4.71749ZM5.70103 3.22675C5.71981 3.28093 5.7294 3.29544 5.7294 3.30994C5.73066 4.43708 5.73149 5.56464 5.73149 6.69177C5.73149 6.81506 5.66932 6.8782 5.54788 6.87863C5.34508 6.87863 5.14187 6.87437 4.93948 6.88076C4.783 6.88588 4.71707 6.81933 4.7058 6.65764C4.64696 5.81976 4.57895 4.98315 4.5176 4.14527C4.4838 3.68366 4.41913 3.80568 4.81388 3.60175C5.09763 3.45542 5.40225 3.35132 5.70103 3.22675ZM11.2614 3.24552C11.7008 3.36028 12.0901 3.52923 12.4556 3.75491C12.4836 3.77197 12.4961 3.83639 12.4945 3.8782C12.489 4.03221 12.4748 4.1858 12.4632 4.33938C12.4035 5.11839 12.3417 5.89698 12.2858 6.67641C12.275 6.8253 12.2074 6.88332 12.0676 6.88076C11.8906 6.87735 11.7141 6.88076 11.5372 6.87991C11.2881 6.87948 11.2614 6.85218 11.2614 6.59408C11.2614 5.54117 11.2614 4.48827 11.2614 3.4358V3.24552Z"/>
</mask>
<path d="M0.500389 11.9431C0.648108 12.0578 0.787065 12.1875 0.945216 12.2848C1.9442 12.9008 3.0354 13.2741 4.16583 13.5395C5.82997 13.9303 7.51915 14.0395 9.22084 13.9883C10.8032 13.9405 12.3618 13.7315 13.8782 13.2511C14.7052 12.9891 15.4993 12.6504 16.2321 12.17C16.4211 12.0459 16.5179 11.9047 16.4979 11.664C16.4762 11.4051 16.4937 11.1427 16.4929 10.882C16.4921 10.6594 16.4228 10.5868 16.2025 10.5843C15.9525 10.5813 15.7025 10.5834 15.453 10.5834C15.3971 10.5834 15.3412 10.5834 15.2657 10.5834C15.2657 10.5041 15.2657 10.4418 15.2657 10.3799C15.2598 9.45415 15.2969 8.52539 15.2385 7.60261C15.1284 5.86199 14.3247 4.50064 12.9184 3.52155C12.1039 2.95457 11.1921 2.66873 10.2052 2.63972C10.1539 2.63801 10.103 2.63204 10.0638 2.62905C10.0638 2.40252 10.0583 2.18622 10.0646 1.97078C10.0821 1.38332 9.74412 1.01216 9.16826 1.00448C8.72051 0.998507 8.27277 0.998507 7.82502 1.00448C7.24791 1.01216 6.91199 1.38119 6.9291 1.9712C6.93536 2.18323 6.92994 2.39527 6.92994 2.62393C6.73673 2.64057 6.521 2.65337 6.30609 2.67854C4.04732 2.94475 2.18122 4.76174 1.81192 7.06464C1.75934 7.39399 1.73639 7.73102 1.73138 8.06464C1.7197 8.83085 1.72763 9.59749 1.72763 10.3637V10.583C1.58617 10.583 1.45389 10.583 1.32119 10.583C1.14927 10.583 0.977348 10.5877 0.805843 10.5817C0.67565 10.577 0.572996 10.6175 0.499971 10.7289L0.500389 11.9431ZM12.7281 10.577C12.7194 10.4153 12.7281 10.2639 12.6998 10.1197C12.6176 9.69476 12.2758 9.43879 11.8068 9.43879C9.59974 9.43793 7.39229 9.43879 5.18526 9.43879C5.15397 9.43879 5.12267 9.43879 5.09179 9.44049C4.62234 9.46439 4.28685 9.81549 4.27558 10.2959C4.27349 10.3889 4.27558 10.4823 4.27558 10.577H2.17621C2.17204 10.5352 2.1662 10.5041 2.1662 10.4733C2.1662 9.63759 2.16119 8.80227 2.16745 7.96652C2.17454 7.03051 2.41573 6.16063 2.90521 5.36626C3.21025 4.87138 3.58747 4.44476 4.06485 4.07786C4.07445 4.15551 4.08404 4.21097 4.08822 4.26728C4.15081 5.08938 4.21215 5.91148 4.27558 6.73358C4.30354 7.09706 4.52887 7.31677 4.88482 7.32573C5.07719 7.33085 5.26997 7.32701 5.46276 7.32701C5.95015 7.32658 6.16964 7.10389 6.17006 6.60773C6.17089 5.59109 6.17006 4.57488 6.17006 3.55824C6.17006 3.45201 6.16463 3.34493 6.17381 3.23912C6.17715 3.20286 6.21513 3.14271 6.24225 3.13929C6.48302 3.11114 6.72547 3.09365 6.9725 3.07231C6.98168 3.12991 6.98919 3.1602 6.99086 3.19091C7.03509 4.08895 7.07807 4.98699 7.12314 5.88546C7.1607 6.6346 7.19158 7.3846 7.24457 8.13247C7.2742 8.54928 7.60052 8.86328 8.00654 8.88375C8.33369 8.90039 8.66251 8.89911 8.98966 8.88375C9.35145 8.86669 9.65774 8.59664 9.73577 8.24083C9.76498 8.10688 9.76832 7.96652 9.775 7.82872C9.8426 6.47377 9.90811 5.11839 9.97488 3.76344C9.98573 3.5416 9.9995 3.32018 10.0133 3.07487C10.2332 3.09194 10.4389 3.11711 10.645 3.12052C10.7999 3.12308 10.8282 3.19305 10.827 3.33682C10.8199 4.04458 10.8236 4.75235 10.8241 5.46011C10.8241 5.87522 10.8186 6.29032 10.8266 6.70542C10.8337 7.07658 11.0682 7.31635 11.4237 7.32573C11.6578 7.33213 11.8923 7.33213 12.1264 7.32573C12.4636 7.31592 12.691 7.09194 12.7177 6.74894C12.7711 6.05952 12.822 5.36967 12.875 4.68025C12.89 4.48699 12.908 4.29373 12.9255 4.09023C12.9585 4.1073 12.9739 4.11199 12.9852 4.12138C14.0618 4.99851 14.6994 6.13674 14.795 7.53904C14.8617 8.51899 14.8212 9.50705 14.8279 10.4913C14.8279 10.5169 14.8217 10.542 14.8171 10.5774L12.7281 10.577ZM16.056 11.0395C16.056 11.2187 16.0443 11.3791 16.0593 11.5373C16.0739 11.696 16.0176 11.7852 15.8845 11.8663C15.1605 12.307 14.3856 12.6244 13.5811 12.868C12.0742 13.324 10.5299 13.5181 8.96254 13.5484C7.15903 13.5834 5.37638 13.429 3.63212 12.9324C2.72745 12.6751 1.8549 12.336 1.05455 11.824C1.0099 11.7954 0.946467 11.7481 0.944381 11.7067C0.933532 11.4861 0.939374 11.2652 0.939374 11.0395H16.056ZM7.51414 4.90764C7.46573 3.93068 7.41524 2.95329 7.36892 1.9759C7.35181 1.61114 7.49912 1.45371 7.85339 1.45158C8.27986 1.44902 8.70674 1.44902 9.13321 1.45158C9.4975 1.45371 9.64188 1.60815 9.62394 1.98528C9.56135 3.30269 9.49542 4.61967 9.43032 5.93665C9.39652 6.62181 9.36564 7.30696 9.32725 7.99211C9.31014 8.30227 9.1595 8.44177 8.85864 8.44433C8.63497 8.44647 8.4113 8.44519 8.18764 8.44433C7.81292 8.44348 7.68147 8.31677 7.66019 7.93495C7.65685 7.87138 7.65602 7.80739 7.6531 7.74382C7.60678 6.79843 7.56046 5.85303 7.51414 4.90764ZM4.71749 10.5783C4.71749 10.452 4.7083 10.3407 4.71957 10.2315C4.73668 10.0634 4.86771 9.92727 5.0317 9.89741C5.10306 9.88461 5.1765 9.88205 5.24911 9.88205C7.41357 9.88119 9.57762 9.88119 11.7421 9.88205C11.8147 9.88205 11.8886 9.88375 11.9595 9.89698C12.1239 9.92855 12.2353 10.0352 12.2666 10.1982C12.29 10.3189 12.2712 10.4477 12.2712 10.5783H4.71749ZM5.70103 3.22675C5.71981 3.28093 5.7294 3.29544 5.7294 3.30994C5.73066 4.43708 5.73149 5.56464 5.73149 6.69177C5.73149 6.81506 5.66932 6.8782 5.54788 6.87863C5.34508 6.87863 5.14187 6.87437 4.93948 6.88076C4.783 6.88588 4.71707 6.81933 4.7058 6.65764C4.64696 5.81976 4.57895 4.98315 4.5176 4.14527C4.4838 3.68366 4.41913 3.80568 4.81388 3.60175C5.09763 3.45542 5.40225 3.35132 5.70103 3.22675ZM11.2614 3.24552C11.7008 3.36028 12.0901 3.52923 12.4556 3.75491C12.4836 3.77197 12.4961 3.83639 12.4945 3.8782C12.489 4.03221 12.4748 4.1858 12.4632 4.33938C12.4035 5.11839 12.3417 5.89698 12.2858 6.67641C12.275 6.8253 12.2074 6.88332 12.0676 6.88076C11.8906 6.87735 11.7141 6.88076 11.5372 6.87991C11.2881 6.87948 11.2614 6.85218 11.2614 6.59408C11.2614 5.54117 11.2614 4.48827 11.2614 3.4358V3.24552Z" fill="#FF5427"/>
<path d="M0.500389 11.9431C0.648108 12.0578 0.787065 12.1875 0.945216 12.2848C1.9442 12.9008 3.0354 13.2741 4.16583 13.5395C5.82997 13.9303 7.51915 14.0395 9.22084 13.9883C10.8032 13.9405 12.3618 13.7315 13.8782 13.2511C14.7052 12.9891 15.4993 12.6504 16.2321 12.17C16.4211 12.0459 16.5179 11.9047 16.4979 11.664C16.4762 11.4051 16.4937 11.1427 16.4929 10.882C16.4921 10.6594 16.4228 10.5868 16.2025 10.5843C15.9525 10.5813 15.7025 10.5834 15.453 10.5834C15.3971 10.5834 15.3412 10.5834 15.2657 10.5834C15.2657 10.5041 15.2657 10.4418 15.2657 10.3799C15.2598 9.45415 15.2969 8.52539 15.2385 7.60261C15.1284 5.86199 14.3247 4.50064 12.9184 3.52155C12.1039 2.95457 11.1921 2.66873 10.2052 2.63972C10.1539 2.63801 10.103 2.63204 10.0638 2.62905C10.0638 2.40252 10.0583 2.18622 10.0646 1.97078C10.0821 1.38332 9.74412 1.01216 9.16826 1.00448C8.72051 0.998507 8.27277 0.998507 7.82502 1.00448C7.24791 1.01216 6.91199 1.38119 6.9291 1.9712C6.93536 2.18323 6.92994 2.39527 6.92994 2.62393C6.73673 2.64057 6.521 2.65337 6.30609 2.67854C4.04732 2.94475 2.18122 4.76174 1.81192 7.06464C1.75934 7.39399 1.73639 7.73102 1.73138 8.06464C1.7197 8.83085 1.72763 9.59749 1.72763 10.3637V10.583C1.58617 10.583 1.45389 10.583 1.32119 10.583C1.14927 10.583 0.977348 10.5877 0.805843 10.5817C0.67565 10.577 0.572996 10.6175 0.499971 10.7289L0.500389 11.9431ZM12.7281 10.577C12.7194 10.4153 12.7281 10.2639 12.6998 10.1197C12.6176 9.69476 12.2758 9.43879 11.8068 9.43879C9.59974 9.43793 7.39229 9.43879 5.18526 9.43879C5.15397 9.43879 5.12267 9.43879 5.09179 9.44049C4.62234 9.46439 4.28685 9.81549 4.27558 10.2959C4.27349 10.3889 4.27558 10.4823 4.27558 10.577H2.17621C2.17204 10.5352 2.1662 10.5041 2.1662 10.4733C2.1662 9.63759 2.16119 8.80227 2.16745 7.96652C2.17454 7.03051 2.41573 6.16063 2.90521 5.36626C3.21025 4.87138 3.58747 4.44476 4.06485 4.07786C4.07445 4.15551 4.08404 4.21097 4.08822 4.26728C4.15081 5.08938 4.21215 5.91148 4.27558 6.73358C4.30354 7.09706 4.52887 7.31677 4.88482 7.32573C5.07719 7.33085 5.26997 7.32701 5.46276 7.32701C5.95015 7.32658 6.16964 7.10389 6.17006 6.60773C6.17089 5.59109 6.17006 4.57488 6.17006 3.55824C6.17006 3.45201 6.16463 3.34493 6.17381 3.23912C6.17715 3.20286 6.21513 3.14271 6.24225 3.13929C6.48302 3.11114 6.72547 3.09365 6.9725 3.07231C6.98168 3.12991 6.98919 3.1602 6.99086 3.19091C7.03509 4.08895 7.07807 4.98699 7.12314 5.88546C7.1607 6.6346 7.19158 7.3846 7.24457 8.13247C7.2742 8.54928 7.60052 8.86328 8.00654 8.88375C8.33369 8.90039 8.66251 8.89911 8.98966 8.88375C9.35145 8.86669 9.65774 8.59664 9.73577 8.24083C9.76498 8.10688 9.76832 7.96652 9.775 7.82872C9.8426 6.47377 9.90811 5.11839 9.97488 3.76344C9.98573 3.5416 9.9995 3.32018 10.0133 3.07487C10.2332 3.09194 10.4389 3.11711 10.645 3.12052C10.7999 3.12308 10.8282 3.19305 10.827 3.33682C10.8199 4.04458 10.8236 4.75235 10.8241 5.46011C10.8241 5.87522 10.8186 6.29032 10.8266 6.70542C10.8337 7.07658 11.0682 7.31635 11.4237 7.32573C11.6578 7.33213 11.8923 7.33213 12.1264 7.32573C12.4636 7.31592 12.691 7.09194 12.7177 6.74894C12.7711 6.05952 12.822 5.36967 12.875 4.68025C12.89 4.48699 12.908 4.29373 12.9255 4.09023C12.9585 4.1073 12.9739 4.11199 12.9852 4.12138C14.0618 4.99851 14.6994 6.13674 14.795 7.53904C14.8617 8.51899 14.8212 9.50705 14.8279 10.4913C14.8279 10.5169 14.8217 10.542 14.8171 10.5774L12.7281 10.577ZM16.056 11.0395C16.056 11.2187 16.0443 11.3791 16.0593 11.5373C16.0739 11.696 16.0176 11.7852 15.8845 11.8663C15.1605 12.307 14.3856 12.6244 13.5811 12.868C12.0742 13.324 10.5299 13.5181 8.96254 13.5484C7.15903 13.5834 5.37638 13.429 3.63212 12.9324C2.72745 12.6751 1.8549 12.336 1.05455 11.824C1.0099 11.7954 0.946467 11.7481 0.944381 11.7067C0.933532 11.4861 0.939374 11.2652 0.939374 11.0395H16.056ZM7.51414 4.90764C7.46573 3.93068 7.41524 2.95329 7.36892 1.9759C7.35181 1.61114 7.49912 1.45371 7.85339 1.45158C8.27986 1.44902 8.70674 1.44902 9.13321 1.45158C9.4975 1.45371 9.64188 1.60815 9.62394 1.98528C9.56135 3.30269 9.49542 4.61967 9.43032 5.93665C9.39652 6.62181 9.36564 7.30696 9.32725 7.99211C9.31014 8.30227 9.1595 8.44177 8.85864 8.44433C8.63497 8.44647 8.4113 8.44519 8.18764 8.44433C7.81292 8.44348 7.68147 8.31677 7.66019 7.93495C7.65685 7.87138 7.65602 7.80739 7.6531 7.74382C7.60678 6.79843 7.56046 5.85303 7.51414 4.90764ZM4.71749 10.5783C4.71749 10.452 4.7083 10.3407 4.71957 10.2315C4.73668 10.0634 4.86771 9.92727 5.0317 9.89741C5.10306 9.88461 5.1765 9.88205 5.24911 9.88205C7.41357 9.88119 9.57762 9.88119 11.7421 9.88205C11.8147 9.88205 11.8886 9.88375 11.9595 9.89698C12.1239 9.92855 12.2353 10.0352 12.2666 10.1982C12.29 10.3189 12.2712 10.4477 12.2712 10.5783H4.71749ZM5.70103 3.22675C5.71981 3.28093 5.7294 3.29544 5.7294 3.30994C5.73066 4.43708 5.73149 5.56464 5.73149 6.69177C5.73149 6.81506 5.66932 6.8782 5.54788 6.87863C5.34508 6.87863 5.14187 6.87437 4.93948 6.88076C4.783 6.88588 4.71707 6.81933 4.7058 6.65764C4.64696 5.81976 4.57895 4.98315 4.5176 4.14527C4.4838 3.68366 4.41913 3.80568 4.81388 3.60175C5.09763 3.45542 5.40225 3.35132 5.70103 3.22675ZM11.2614 3.24552C11.7008 3.36028 12.0901 3.52923 12.4556 3.75491C12.4836 3.77197 12.4961 3.83639 12.4945 3.8782C12.489 4.03221 12.4748 4.1858 12.4632 4.33938C12.4035 5.11839 12.3417 5.89698 12.2858 6.67641C12.275 6.8253 12.2074 6.88332 12.0676 6.88076C11.8906 6.87735 11.7141 6.88076 11.5372 6.87991C11.2881 6.87948 11.2614 6.85218 11.2614 6.59408C11.2614 5.54117 11.2614 4.48827 11.2614 3.4358V3.24552Z" stroke="#FF5427" stroke-width="0.4" mask="url(#path-1-outside-1_105_2446)"/>
</svg>
