<svg width="28" height="20" viewBox="0 0 28 20" fill="none" xmlns="http://www.w3.org/2000/svg">
<g clip-path="url(#clip0_105_2321)">
<path d="M0.5 15.9472C0.691619 15.517 1.02766 15.3759 1.5053 15.3766C9.87807 15.3862 18.2501 15.3834 26.6229 15.3834C27.1865 15.3834 27.5458 15.7321 27.4951 16.2376C27.462 16.5698 27.2527 16.7794 26.9484 16.8999C25.8057 17.3534 24.6729 17.8328 23.5147 18.2452C21.7028 18.8897 19.8373 19.361 17.9331 19.6692C15.9514 19.9905 13.9598 20.098 11.9535 19.9028C8.11827 19.5295 4.49512 18.4411 1.01498 16.8684C0.807154 16.7739 0.670485 16.5307 0.5 16.3574V15.9472Z" fill="#939393"/>
<path d="M17.831 2.15555C18.3432 2.37885 18.8004 2.57201 19.2491 2.78229C19.3104 2.81106 19.3675 2.9275 19.3618 2.99873C19.2541 4.30015 19.135 5.60088 19.0223 6.90229C18.9342 7.91466 18.8476 8.92702 18.7666 9.93938C18.732 10.3695 19.0822 10.7456 19.5204 10.7668C19.9261 10.7867 20.2946 10.4586 20.3298 10.0442C20.5073 7.96877 20.6849 5.89335 20.8631 3.81794C20.8645 3.80356 20.8765 3.78986 20.9018 3.74054C21.0984 3.88781 21.2935 4.02617 21.4795 4.1748C23.7353 5.98651 25.1844 8.27357 25.7297 11.0757C25.8494 11.6929 25.8755 12.3292 25.9107 12.9587C25.9333 13.3587 26.0819 13.6457 26.5123 13.8238H1.49829C1.9872 13.6306 2.07808 13.2621 2.08935 12.8114C2.1598 10.0394 3.17989 7.62012 5.06086 5.55293C5.58147 4.98031 6.20423 4.49605 6.78402 3.97479C6.87772 3.89055 6.98973 3.82616 7.12499 3.73027C7.18558 4.41865 7.24334 5.06113 7.299 5.70431C7.39974 6.86119 7.49907 8.0174 7.5984 9.17429C7.62235 9.45512 7.64701 9.73595 7.66744 10.0168C7.69985 10.4613 8.07956 10.8038 8.50155 10.7654C8.95594 10.7243 9.26591 10.3449 9.22717 9.89075C9.09261 8.31741 8.96298 6.74338 8.82913 5.16936C8.76855 4.46317 8.70373 3.75766 8.63399 3.05285C8.6199 2.91038 8.63751 2.81791 8.7925 2.75421C9.23562 2.57269 9.67169 2.37543 10.1578 2.16377C10.1874 2.4405 10.2156 2.67201 10.2353 2.90421C10.3304 4.02685 10.422 5.15018 10.5178 6.27282C10.6136 7.39546 10.7129 8.5181 10.8115 9.64074C10.827 9.81883 10.8299 10.001 10.8714 10.1736C10.9637 10.5565 11.3455 10.8141 11.7105 10.7613C12.1346 10.7004 12.4452 10.349 12.4107 9.93527C12.3022 8.63386 12.1811 7.33313 12.069 6.03171C11.9718 4.90907 11.8809 3.78575 11.7851 2.66311C11.7415 2.15282 11.6943 1.64252 11.6499 1.13223C11.6386 1.00483 11.6266 0.876744 11.6287 0.748657C11.6372 0.33015 11.9697 0.00479639 12.403 0.00274152C13.466 -0.00205316 14.5298 -0.00205316 15.5929 0.00274152C16.0458 0.00479639 16.3903 0.346589 16.3643 0.800029C16.3227 1.52403 16.2509 2.24665 16.1889 2.96997C16.1093 3.90561 16.0275 4.84126 15.9465 5.77623C15.8479 6.91599 15.7493 8.05576 15.6499 9.19484C15.6302 9.4243 15.6091 9.65376 15.5879 9.88321C15.5464 10.3332 15.8606 10.7154 16.3136 10.7634C16.7158 10.8059 17.1174 10.4791 17.1568 10.0476C17.2547 8.97634 17.3379 7.9037 17.4287 6.83243C17.526 5.69266 17.626 4.5529 17.7246 3.41382C17.7591 3.01654 17.7909 2.61927 17.8296 2.15487L17.831 2.15555Z" fill="#939393"/>
</g>
<defs>
<clipPath id="clip0_105_2321">
<rect width="27" height="20" fill="white" transform="translate(0.5)"/>
</clipPath>
</defs>
</svg>
