<svg width="14" height="13" viewBox="0 0 14 13" fill="none" xmlns="http://www.w3.org/2000/svg">
<path fill-rule="evenodd" clip-rule="evenodd" d="M11.2059 0.764685C11.2059 0.342342 10.8635 0 10.4412 0C10.0189 0 9.67647 0.342342 9.67647 0.764685V2.29411H8.14706C7.72473 2.29411 7.38235 2.63647 7.38235 3.05881C7.38235 3.48115 7.72473 3.82351 8.14706 3.82351H9.67647V5.35293C9.67647 5.77528 10.0189 6.11762 10.4412 6.11762C10.8635 6.11762 11.2059 5.77528 11.2059 5.35293V3.82351H12.7353C13.1576 3.82351 13.5 3.48115 13.5 3.05881C13.5 2.63647 13.1576 2.29411 12.7353 2.29411H11.2059V0.764685ZM1.26471 0.764929H5.85294V2.29435H2.02941V11.4708H11.2059V7.64729H12.7353V12.2355C12.7353 12.6579 12.3929 13.0002 11.9706 13.0002H1.26471C0.842373 13.0002 0.5 12.6579 0.5 12.2355V1.52963C0.5 1.10729 0.842373 0.764929 1.26471 0.764929ZM2.79412 9.17647L5.34314 5.73529L7.89216 9.17647H2.79412ZM8.36031 6.49995L7.52793 7.26469L8.77646 9.17651H10.4412L8.36031 6.49995Z" fill="#888888"/>
</svg>
