<svg width="26" height="26" viewBox="0 0 26 26" fill="none" xmlns="http://www.w3.org/2000/svg">
<g clip-path="url(#clip0_105_9017)">
<path d="M0 24.0667V1.92981C0.160774 1.34248 0.401936 0.7936 0.93319 0.45798C1.24076 0.262202 1.59726 0.150329 1.92929 0H13.7078C13.7078 1.72704 13.7078 3.45058 13.7078 5.17763C13.7078 5.81041 13.9909 6.09359 14.62 6.09359C16.2522 6.09359 17.8844 6.09359 19.5166 6.09359C19.6075 6.09359 19.6949 6.09359 19.7997 6.09359C19.7997 7.1354 19.7927 8.14226 19.8032 9.14562C19.8032 9.33441 19.7438 9.45677 19.6145 9.58612C17.9927 11.1943 16.364 12.799 14.7633 14.4281C14.4522 14.7463 14.1691 15.1343 13.9978 15.5434C13.6693 16.337 13.4072 17.1585 13.166 17.9836C12.9528 18.7073 13.1381 19.361 13.6938 19.8784C14.239 20.3854 14.8891 20.5217 15.5986 20.2945C16.2871 20.0742 16.9722 19.8295 17.6607 19.6058C18.178 19.4379 18.6254 19.1653 19.0098 18.7842C19.2125 18.5814 19.4187 18.3786 19.625 18.1794C19.6669 18.1374 19.7193 18.106 19.7927 18.05C19.7927 19.9938 19.7927 21.8957 19.7892 23.7975C19.7892 23.9653 19.7543 24.1331 19.7053 24.2939C19.3943 25.3602 18.538 25.993 17.4056 25.993C13.4631 25.993 9.52413 25.993 5.58166 25.993C4.4912 25.993 3.40073 25.993 2.30676 25.993C1.55881 25.993 0.9262 25.7098 0.492808 25.1015C0.272617 24.7939 0.160774 24.4128 0 24.0632L0 24.0667ZM9.1187 9.13863C10.8348 9.13863 12.5509 9.13863 14.2705 9.13863C14.4033 9.13863 14.5431 9.12465 14.6689 9.08969C14.987 9.00229 15.1827 8.7226 15.1862 8.39048C15.1862 8.04437 14.994 7.7577 14.6654 7.6668C14.5291 7.62834 14.3823 7.61786 14.239 7.61786C10.8313 7.61786 7.42358 7.61786 4.01237 7.61786C3.91101 7.61786 3.80965 7.61786 3.70829 7.63184C3.22597 7.71225 2.94636 8.15275 3.08617 8.60374C3.19452 8.95684 3.48461 9.14213 3.93548 9.14213C5.66205 9.14213 7.38513 9.14213 9.11171 9.14213L9.1187 9.13863ZM7.60183 10.6629C6.96922 10.6629 6.33311 10.6629 5.7005 10.6629C5.08187 10.6629 4.46673 10.6524 3.8481 10.6629C3.2749 10.6734 2.91491 11.1803 3.10015 11.6872C3.21549 12.0054 3.50907 12.1837 3.93198 12.1837C6.04651 12.1837 8.16104 12.1837 10.2756 12.1837C10.6391 12.1837 11.0026 12.1907 11.366 12.1837C11.8414 12.1697 12.1524 11.8446 12.142 11.3936C12.1315 10.9566 11.8029 10.6629 11.3066 10.6629C10.0729 10.6594 8.8356 10.6629 7.60183 10.6629V10.6629ZM7.60183 13.7079C7.01815 13.7079 6.43447 13.7079 5.85079 13.7079C5.19021 13.7079 4.53314 13.701 3.87256 13.7079C3.28189 13.7149 2.90792 14.2149 3.09665 14.7288C3.21199 15.0469 3.50558 15.2287 3.92849 15.2287C5.95913 15.2287 7.98629 15.2287 10.0169 15.2287C10.4573 15.2287 10.8977 15.2357 11.3346 15.2287C11.8274 15.2182 12.1455 14.9001 12.135 14.4421C12.1245 14.0086 11.7959 13.7114 11.3031 13.7079C10.0694 13.7045 8.8321 13.7079 7.59833 13.7079H7.60183ZM7.59484 18.2773C8.80414 18.2773 10.0134 18.2773 11.2227 18.2773C11.3556 18.2773 11.4954 18.2633 11.6212 18.2283C11.9462 18.1374 12.142 17.8507 12.1385 17.5011C12.135 17.169 11.9357 16.8928 11.6177 16.8054C11.4814 16.767 11.3346 16.7565 11.1913 16.7565C8.79715 16.7565 6.40651 16.7565 4.01237 16.7565C3.86208 16.7565 3.7048 16.7635 3.5615 16.8089C3.06869 16.9628 2.89044 17.585 3.21898 17.9871C3.40772 18.2178 3.65936 18.2808 3.94247 18.2808C5.15876 18.2808 6.37855 18.2808 7.59484 18.2808V18.2773ZM12.1559 22.8466C12.9004 22.8466 13.6448 22.8536 14.3858 22.8466C14.8576 22.8431 15.1757 22.5354 15.1827 22.1054C15.1897 21.6684 14.8856 21.3328 14.4243 21.3293C12.9109 21.3188 11.3975 21.3188 9.88412 21.3293C9.39481 21.3328 9.08375 21.7069 9.12569 22.1788C9.16064 22.5704 9.48918 22.8431 9.94354 22.8466C10.6775 22.8501 11.415 22.8466 12.1489 22.8466H12.1559Z" fill="#EAEAEA"/>
<path d="M15.686 0C16.4409 0.16781 16.9757 0.657254 17.4895 1.19564C18.0557 1.78997 18.6498 2.35633 19.2125 2.95065C19.6285 3.38766 19.7752 3.93653 19.7787 4.55184H15.1792V0H15.686V0Z" fill="#EAEAEA"/>
<path d="M18.3423 17.2494C17.6503 16.5572 16.9338 15.8405 16.2383 15.1413C17.888 13.4912 19.5516 11.827 21.2083 10.1699L23.3124 12.2815L18.3458 17.2494H18.3423Z" fill="#EAEAEA"/>
<path d="M24.4027 11.1243L22.2847 9.00572C22.7041 8.60717 23.113 8.16318 23.5744 7.7891C24.1301 7.33811 25.0842 7.44649 25.5701 7.96041C26.0908 8.51628 26.1607 9.38679 25.6609 9.94615C25.2765 10.3797 24.8151 10.7432 24.4027 11.1243Z" fill="#EAEAEA"/>
<path d="M17.0246 18.2249C16.399 18.4347 15.7419 18.6654 15.0778 18.8717C14.7703 18.966 14.5326 18.6759 14.6305 18.3403C14.7318 18.0011 14.8542 17.6725 14.966 17.3369C15.0674 17.0362 15.1652 16.7321 15.2561 16.4629L17.0246 18.2249Z" fill="#EAEAEA"/>
</g>
<defs>
<clipPath id="clip0_105_9017">
<rect width="26" height="26" fill="white"/>
</clipPath>
</defs>
</svg>
