<svg width="27" height="28" viewBox="0 0 27 28" fill="none" xmlns="http://www.w3.org/2000/svg">
<g clip-path="url(#clip0_105_7613)">
<path d="M0.5 26.3641V7.63292C0.63604 7.13594 0.840099 6.67151 1.28962 6.38752C1.54987 6.22186 1.85153 6.1272 2.13248 6H12.0989C12.0989 7.46134 12.0989 8.91973 12.0989 10.3811C12.0989 10.9165 12.3384 11.1561 12.8707 11.1561C14.2518 11.1561 15.6329 11.1561 17.014 11.1561C17.0909 11.1561 17.1649 11.1561 17.2536 11.1561C17.2536 12.0376 17.2477 12.8896 17.2566 13.7386C17.2566 13.8983 17.2063 14.0019 17.0969 14.1113C15.7246 15.4721 14.3465 16.8299 12.992 18.2084C12.7288 18.4776 12.4892 18.806 12.3443 19.1521C12.0663 19.8236 11.8445 20.5188 11.6405 21.2169C11.4601 21.8292 11.6168 22.3824 12.087 22.8202C12.5484 23.2492 13.0985 23.3645 13.6988 23.1722C14.2814 22.9859 14.8611 22.7788 15.4437 22.5895C15.8814 22.4475 16.2599 22.2168 16.5852 21.8943C16.7568 21.7227 16.9312 21.5512 17.1057 21.3825C17.1412 21.347 17.1856 21.3204 17.2477 21.2731C17.2477 22.9178 17.2477 24.5271 17.2447 26.1363C17.2447 26.2783 17.2151 26.4203 17.1737 26.5564C16.9105 27.4587 16.186 27.9941 15.2278 27.9941C11.8919 27.9941 8.55888 27.9941 5.22295 27.9941C4.30024 27.9941 3.37754 27.9941 2.45188 27.9941C1.81899 27.9941 1.28371 27.7545 0.916992 27.2397C0.730676 26.9794 0.63604 26.657 0.5 26.3612L0.5 26.3641ZM8.21582 13.7327C9.6679 13.7327 11.12 13.7327 12.575 13.7327C12.6874 13.7327 12.8057 13.7209 12.9122 13.6913C13.1813 13.6173 13.3469 13.3807 13.3498 13.0996C13.3498 12.8068 13.1872 12.5642 12.9092 12.4873C12.7939 12.4548 12.6696 12.4459 12.5484 12.4459C9.66494 12.4459 6.78149 12.4459 3.89508 12.4459C3.80932 12.4459 3.72355 12.4459 3.63779 12.4577C3.22967 12.5257 2.99308 12.8985 3.11137 13.2801C3.20305 13.5789 3.44851 13.7356 3.83002 13.7356C5.29097 13.7356 6.74896 13.7356 8.20991 13.7356L8.21582 13.7327ZM6.93232 15.0225C6.39703 15.0225 5.85878 15.0225 5.3235 15.0225C4.80004 15.0225 4.27954 15.0136 3.75608 15.0225C3.27107 15.0313 2.96646 15.4603 3.1232 15.8892C3.2208 16.1584 3.46922 16.3093 3.82706 16.3093C5.61628 16.3093 7.4055 16.3093 9.19472 16.3093C9.50229 16.3093 9.80985 16.3152 10.1174 16.3093C10.5196 16.2974 10.7828 16.0223 10.774 15.6407C10.7651 15.2709 10.4871 15.0225 10.0671 15.0225C9.02319 15.0195 7.97627 15.0225 6.93232 15.0225ZM6.93232 17.599C6.43843 17.599 5.94455 17.599 5.45066 17.599C4.89172 17.599 4.33573 17.5931 3.77678 17.599C3.27699 17.6049 2.96055 18.028 3.12024 18.4628C3.21784 18.732 3.46626 18.8858 3.8241 18.8858C5.54234 18.8858 7.25763 18.8858 8.97587 18.8858C9.3485 18.8858 9.72113 18.8918 10.0908 18.8858C10.5078 18.877 10.7769 18.6078 10.768 18.2202C10.7592 17.8534 10.4812 17.602 10.0642 17.599C9.02023 17.5961 7.97332 17.599 6.92936 17.599H6.93232ZM6.9264 21.4654C7.94966 21.4654 8.97291 21.4654 9.99617 21.4654C10.1085 21.4654 10.2268 21.4535 10.3333 21.424C10.6083 21.347 10.774 21.1045 10.771 20.8087C10.768 20.5276 10.5995 20.2939 10.3304 20.22C10.215 20.1874 10.0908 20.1786 9.96955 20.1786C7.94374 20.1786 5.92089 20.1786 3.89508 20.1786C3.76791 20.1786 3.63483 20.1845 3.51358 20.2229C3.09659 20.3531 2.94576 20.8797 3.22375 21.2198C3.38345 21.4151 3.59638 21.4683 3.83593 21.4683C4.8651 21.4683 5.89723 21.4683 6.9264 21.4683V21.4654ZM10.7858 25.3317C11.4157 25.3317 12.0456 25.3376 12.6726 25.3317C13.0719 25.3288 13.341 25.0684 13.3469 24.7046C13.3528 24.3348 13.0955 24.0508 12.7051 24.0479C11.4246 24.039 10.144 24.039 8.86349 24.0479C8.44946 24.0508 8.18625 24.3673 8.22174 24.7667C8.25131 25.098 8.52931 25.3288 8.91376 25.3317C9.53482 25.3347 10.1588 25.3317 10.7799 25.3317H10.7858Z" fill="#939393"/>
<path d="M13.7727 6C14.4115 6.14199 14.864 6.55614 15.2987 7.0117C15.7778 7.51459 16.2806 7.99381 16.7567 8.49671C17.1086 8.86648 17.2328 9.33091 17.2358 9.85155H13.3439V6H13.7727Z" fill="#939393"/>
<path d="M16.0203 20.5958C15.4348 20.0101 14.8285 19.4036 14.24 18.812C15.6359 17.4157 17.0436 16.0076 18.4454 14.6055L20.2257 16.3922L16.0233 20.5958H16.0203Z" fill="#939393"/>
<path d="M21.1485 15.4128L19.3563 13.6201C19.7112 13.2829 20.0572 12.9072 20.4476 12.5907C20.9178 12.2091 21.7252 12.3008 22.1363 12.7356C22.5769 13.206 22.6361 13.9426 22.2132 14.4159C21.8878 14.7827 21.4975 15.0903 21.1485 15.4128Z" fill="#939393"/>
<path d="M14.9054 21.4211C14.376 21.5986 13.82 21.7938 13.2581 21.9684C12.9979 22.0482 12.7968 21.8027 12.8796 21.5187C12.9654 21.2318 13.0689 20.9537 13.1635 20.6697C13.2493 20.4153 13.3321 20.158 13.409 19.9302L14.9054 21.4211Z" fill="#939393"/>
</g>
<path d="M17.5 4.49394C17.5022 1.99584 19.5146 -0.00275383 22.0265 2.8483e-06C24.4821 0.00220819 26.5033 2.02065 26.5 4.46582C26.4967 7.02511 24.5041 9.0033 21.9333 9C19.4992 8.99724 17.4978 6.96281 17.5 4.49394ZM22.6432 5.14341C22.8417 5.14341 23.0208 5.14451 23.2 5.14341C23.626 5.14065 23.9242 4.87822 23.9275 4.50441C23.9309 4.13226 23.6293 3.86045 23.2082 3.85769C23.0236 3.85659 22.8389 3.85769 22.6432 3.85769C22.6432 3.64378 22.6455 3.45687 22.6432 3.26997C22.6372 2.86529 22.3588 2.56757 21.9939 2.57253C21.6318 2.57749 21.3645 2.86584 21.3579 3.2617C21.3545 3.45412 21.3579 3.64653 21.3579 3.85714C21.2669 3.85714 21.1947 3.85714 21.1225 3.85714C20.3877 3.85769 20.078 4.04625 20.073 4.49504C20.068 4.94382 20.3877 5.14286 21.1126 5.14341C21.1903 5.14341 21.2675 5.14341 21.3573 5.14341C21.3573 5.35677 21.3551 5.54313 21.3573 5.72948C21.3628 6.13361 21.6406 6.43243 22.0055 6.42802C22.366 6.42361 22.6355 6.13361 22.6427 5.73885C22.646 5.54643 22.6432 5.35402 22.6432 5.14341Z" fill="#939393"/>
<defs>
<clipPath id="clip0_105_7613">
<rect width="22" height="22" fill="white" transform="translate(0.5 6)"/>
</clipPath>
</defs>
</svg>
