<svg width="26" height="25" viewBox="0 0 26 25" fill="none" xmlns="http://www.w3.org/2000/svg">
<g clip-path="url(#clip0_105_7361)">
<path d="M12.0561 0H13.9126C14.1595 0.0347174 14.4063 0.0729065 14.6531 0.10068C15.0529 0.145813 15.2789 0.3194 15.3902 0.701291C15.4875 1.04499 15.5675 1.39217 15.6752 1.7324C15.6996 1.81572 15.7865 1.91987 15.8665 1.9407C16.7634 2.1872 17.6117 2.54826 18.4252 2.99958C18.4947 3.03777 18.6269 3.02736 18.7033 2.98917C19.0128 2.826 19.3117 2.64199 19.6107 2.46841C19.934 2.27746 20.24 2.29829 20.539 2.52743C21.4603 3.22525 22.2668 4.03416 22.9656 4.9507C23.1951 5.25274 23.2159 5.55478 23.0282 5.87766C22.8509 6.1797 22.6805 6.48521 22.4963 6.78031C22.4267 6.8914 22.4267 6.97125 22.4963 7.08582C22.9552 7.87391 23.3028 8.71407 23.5392 9.59589C23.5775 9.73129 23.6435 9.79378 23.7826 9.82502C24.092 9.89099 24.3945 9.98472 24.7004 10.0611C25.1628 10.1791 25.354 10.4048 25.3992 10.877C25.4235 11.1269 25.4653 11.3734 25.4966 11.6199V13.3766C25.4618 13.6231 25.4235 13.8731 25.3992 14.1196C25.354 14.5778 25.1663 14.8104 24.7213 14.9285C24.4084 15.0118 24.0955 15.1021 23.7791 15.1715C23.6401 15.2027 23.574 15.2652 23.5392 15.4006C23.3028 16.2825 22.9482 17.1157 22.5032 17.9142C22.4615 17.9906 22.4685 18.1294 22.5102 18.2127C22.6666 18.5148 22.8439 18.8064 23.0212 19.1015C23.2194 19.4313 23.2055 19.7403 22.9691 20.0493C22.2668 20.9658 21.4603 21.7748 20.539 22.4726C20.2365 22.7017 19.934 22.7156 19.6107 22.5246C19.3152 22.3511 19.0162 22.1844 18.7277 22.0074C18.6129 21.9379 18.526 21.9275 18.4009 22.0004C17.6117 22.4587 16.7704 22.7989 15.8908 23.0489C15.8039 23.0732 15.71 23.1773 15.6822 23.2641C15.5744 23.6044 15.4875 23.9515 15.3971 24.2952C15.3067 24.6459 15.0738 24.8334 14.7261 24.882C13.565 25.0382 12.4038 25.0382 11.2461 24.882C10.9019 24.8334 10.669 24.6389 10.5821 24.2918C10.4952 23.9446 10.4082 23.6009 10.3005 23.2607C10.2761 23.1773 10.1857 23.0767 10.1093 23.0524C9.21231 22.8024 8.36055 22.4483 7.55051 21.99C7.48445 21.9518 7.36277 21.9588 7.29324 21.9935C6.96992 22.1671 6.6605 22.3615 6.34066 22.5385C6.03472 22.7121 5.73921 22.6948 5.45414 22.4795C4.51894 21.7713 3.69847 20.952 2.99273 20.0215C2.77718 19.7368 2.76327 19.4417 2.9371 19.1362C3.11093 18.8342 3.28476 18.5287 3.46902 18.2336C3.53855 18.119 3.55593 18.0322 3.47945 17.9038C3.02054 17.1157 2.67636 16.2755 2.42604 15.3972C2.40171 15.3104 2.29741 15.2132 2.2105 15.1854C1.88022 15.0778 1.53952 14.9979 1.20229 14.9077C0.805964 14.7966 0.621706 14.5744 0.579987 14.1647C0.552175 13.9078 0.500026 13.6474 0.506979 13.3905C0.524362 12.5052 0.548698 11.6199 0.600847 10.7381C0.621706 10.4013 0.844206 10.1826 1.18143 10.0958C1.52909 10.009 1.87327 9.91876 2.21397 9.81461C2.29741 9.78683 2.40171 9.70351 2.42257 9.62366C2.6694 8.72795 3.02749 7.87738 3.48292 7.06846C3.52116 6.99903 3.51073 6.8671 3.47249 6.79072C3.30909 6.48174 3.12831 6.18317 2.95101 5.88113C2.7598 5.55826 2.78065 5.25274 3.01011 4.95417C3.71237 4.03763 4.51894 3.22872 5.43675 2.5309C5.73921 2.30176 6.04168 2.28093 6.365 2.46841C6.66746 2.64547 6.96644 2.82947 7.27586 2.98917C7.35582 3.03083 7.49836 3.0343 7.57484 2.98917C8.3675 2.54826 9.19492 2.19761 10.0675 1.96153C10.2101 1.92334 10.2866 1.8678 10.3179 1.71157C10.3874 1.3887 10.4813 1.06582 10.5682 0.746424C10.6864 0.326344 10.9123 0.142341 11.3469 0.0972087C11.5798 0.0729065 11.8197 0.0347174 12.0561 0ZM12.9844 4.71809C8.67691 4.71809 5.19687 8.19331 5.19339 12.4948C5.19339 16.7928 8.67344 20.275 12.9809 20.275C17.2849 20.275 20.7719 16.7963 20.7719 12.4948C20.7719 8.19331 17.2918 4.71462 12.9844 4.71462V4.71809Z" fill="#939393"/>
<path d="M19.3326 12.4946C19.3326 15.9698 16.4783 18.8305 12.9948 18.8374C9.50783 18.8444 6.63271 15.9733 6.63966 12.4911C6.64661 9.01241 9.51131 6.15864 12.9914 6.16211C16.4749 6.16211 19.3326 9.02283 19.3361 12.498L19.3326 12.4946ZM12.2056 13.8208C12.1292 13.7479 12.0701 13.6923 12.0144 13.6368C11.6007 13.2236 11.1835 12.8105 10.7698 12.3974C10.5925 12.2203 10.3804 12.13 10.1301 12.1752C9.84506 12.2272 9.64342 12.3869 9.55303 12.6716C9.45568 12.9667 9.53912 13.2167 9.74771 13.4285C10.3492 14.036 10.9541 14.6366 11.559 15.2407C12.0144 15.6955 12.383 15.699 12.8349 15.2477C14.0691 14.0187 15.2998 12.7862 16.5305 11.5572C16.5931 11.4947 16.6557 11.4287 16.7078 11.3558C17.0033 10.9358 16.8156 10.3942 16.3254 10.2414C16.0055 10.1407 15.7587 10.2692 15.5397 10.4914C14.4376 11.5954 13.3321 12.6994 12.2056 13.8242V13.8208Z" fill="#939393"/>
</g>
<defs>
<clipPath id="clip0_105_7361">
<rect width="25" height="25" fill="white" transform="translate(0.5)"/>
</clipPath>
</defs>
</svg>
