<svg width="18" height="17" viewBox="0 0 18 17" fill="none" xmlns="http://www.w3.org/2000/svg">
<path d="M3.30117 11.6284C3.13469 11.2114 2.97562 10.8416 2.84284 10.463C2.79094 10.3148 2.70534 10.3007 2.57862 10.302C2.0576 10.3054 1.5359 10.3061 1.01488 10.302C0.635407 10.3 0.50195 10.1639 0.501276 9.78198C0.499928 8.91638 0.499254 8.05078 0.501276 7.18518C0.50195 6.82209 0.642821 6.67727 1.00275 6.6739C1.51568 6.66918 2.02862 6.66245 2.54155 6.67727C2.73904 6.68333 2.81385 6.61058 2.87249 6.43139C2.96551 6.1451 3.08616 5.86623 3.21692 5.59543C3.28634 5.45195 3.28095 5.36438 3.16232 5.25054C2.78622 4.89015 2.42157 4.51696 2.0549 4.14715C1.78664 3.87635 1.78731 3.69178 2.06097 3.41761C2.67837 2.79856 3.29645 2.18085 3.91656 1.56381C4.18549 1.29638 4.37489 1.29706 4.6472 1.56718C5.01791 1.93363 5.38863 2.30008 5.75058 2.67461C5.85438 2.78172 5.93391 2.79788 6.07344 2.7312C6.36798 2.58974 6.67129 2.46512 6.97932 2.35666C7.12289 2.30547 7.17344 2.2408 7.17075 2.08923C7.16198 1.57661 7.16603 1.06398 7.16738 0.551359C7.16872 0.135734 7.29949 0.00168405 7.70525 0.00101043C8.56261 -0.00033681 9.42064 -0.00033681 10.278 0.00101043C10.6642 0.00101043 10.797 0.131019 10.7983 0.510268C10.801 1.02289 10.8078 1.53552 10.7943 2.04814C10.7896 2.22665 10.8543 2.29065 11.0154 2.34521C11.316 2.4476 11.6112 2.57289 11.8977 2.71099C12.0412 2.78037 12.1282 2.77902 12.2435 2.65912C12.6041 2.28256 12.9761 1.91813 13.3462 1.55101C13.6178 1.28156 13.8018 1.28224 14.0775 1.5564C14.6976 2.17276 15.3157 2.79115 15.9317 3.41088C16.198 3.67831 16.1959 3.86961 15.9263 4.14176C15.5536 4.51764 15.1802 4.89352 14.8007 5.26266C14.7084 5.35293 14.6942 5.42029 14.7522 5.54289C14.8978 5.85343 15.0292 6.17205 15.1478 6.49404C15.1964 6.6254 15.2543 6.67794 15.3972 6.67525C15.9182 6.66716 16.4399 6.67053 16.9609 6.67255C17.3701 6.67457 17.4988 6.80727 17.4995 7.22222C17.5002 8.07099 17.5002 8.91975 17.4995 9.76851C17.4995 10.1794 17.3721 10.3054 16.9542 10.3074C16.4413 10.3094 15.9283 10.3135 15.4154 10.3047C15.2624 10.302 15.1991 10.3559 15.1485 10.4994C15.0366 10.8146 14.9072 11.1259 14.7636 11.4276C14.7016 11.5576 14.7117 11.6311 14.8142 11.7287C15.1984 12.0932 15.5752 12.4657 15.9519 12.8375C16.2202 13.1023 16.2209 13.2983 15.9513 13.5684C15.3345 14.1881 14.7164 14.8058 14.0963 15.4222C13.8274 15.689 13.6367 15.6869 13.3657 15.4182C12.9957 15.051 12.6243 14.6853 12.2617 14.3114C12.1585 14.205 12.0817 14.1861 11.9408 14.2542C11.6469 14.3963 11.3436 14.5236 11.0349 14.628C10.8664 14.6853 10.824 14.7681 10.8273 14.9352C10.8381 15.4559 10.8341 15.9773 10.83 16.498C10.8273 16.8584 10.6851 16.9978 10.3211 16.9985C9.44693 17.0005 8.57204 17.0005 7.69783 16.9985C7.33049 16.9978 7.2004 16.8658 7.19906 16.4953C7.19703 15.9658 7.19434 15.4364 7.20108 14.9069C7.2031 14.7675 7.15996 14.7048 7.02314 14.6563C6.6996 14.5411 6.38146 14.4084 6.07141 14.2616C5.9393 14.1989 5.86584 14.2171 5.76945 14.3161C5.40008 14.6954 5.02398 15.0686 4.6472 15.4411C4.385 15.7004 4.1956 15.7018 3.93476 15.4424C3.30859 14.82 2.68444 14.1962 2.06164 13.5711C1.80349 13.3118 1.80214 13.1164 2.05895 12.8598C2.47415 12.4435 2.89339 12.0319 3.3005 11.6284H3.30117ZM10.03 16.1935C10.03 15.6438 10.03 15.1083 10.03 14.5728C10.03 14.1747 10.1021 14.1086 10.4627 13.9746C10.9251 13.8028 11.3814 13.6102 11.8242 13.3933C12.1909 13.2141 12.2799 13.2047 12.5717 13.4963C12.9505 13.8756 13.328 14.2555 13.6838 14.6125C14.1718 14.1248 14.6383 13.658 15.1222 13.1743C14.7468 12.8018 14.3538 12.4125 13.9629 12.0218C13.7216 11.7806 13.7283 11.6648 13.8712 11.3522C14.0903 10.8732 14.2884 10.3842 14.4718 9.89111C14.5816 9.59539 14.6733 9.50108 15.0009 9.49772C15.2948 9.49435 15.5893 9.49704 15.8839 9.49704C16.1487 9.49704 16.413 9.49704 16.6806 9.49704V7.4654C16.1164 7.4654 15.5711 7.4654 15.0258 7.4654C14.6827 7.4654 14.5965 7.37716 14.4785 7.06527C14.2959 6.58026 14.097 6.09997 13.8766 5.63181C13.7236 5.30712 13.7155 5.20002 13.9737 4.94404C14.3599 4.56008 14.7488 4.17813 15.1215 3.81101C14.6315 3.32263 14.1637 2.85649 13.6751 2.36946C13.2956 2.75073 12.8986 3.14682 12.5063 3.54695C12.3223 3.73489 12.1383 3.75038 11.8943 3.63991C11.3922 3.41223 10.8772 3.21081 10.3609 3.01681C10.1351 2.93193 10.0084 2.80327 10.0097 2.55807C10.0111 2.24754 10.0097 1.93632 10.0097 1.62578C10.0097 1.35903 10.0097 1.09228 10.0097 0.821481H8.02541C8.0126 0.848425 8.00047 0.863245 8.00047 0.877391C7.9971 1.3981 7.9944 1.91881 7.99171 2.43952C7.98969 2.83965 7.91554 2.90364 7.55022 3.03163C7.08515 3.19532 6.62546 3.38124 6.17993 3.59276C5.80383 3.77127 5.72025 3.78204 5.43042 3.49306C5.05161 3.11449 4.67416 2.73524 4.31019 2.37081C3.82556 2.85986 3.36116 3.3287 2.84553 3.84941C3.22838 4.21181 3.63347 4.58904 4.03047 4.97503C4.27379 5.21147 4.26435 5.33878 4.11607 5.64461C3.90105 6.08852 3.69413 6.53917 3.5263 7.00195C3.36858 7.43509 3.32948 7.49235 2.86912 7.49235C2.35821 7.49235 1.8473 7.49235 1.32224 7.49235V9.50917C1.4166 9.50917 1.50692 9.50917 1.59724 9.50917C2.03468 9.50917 2.47145 9.50849 2.90889 9.50917C3.32409 9.51051 3.38408 9.57855 3.52158 9.95915C3.68334 10.4071 3.86466 10.851 4.0763 11.2767C4.2866 11.7005 4.29805 11.7624 3.95565 12.104C3.58898 12.4697 3.22029 12.8342 2.88328 13.1689C3.37599 13.6614 3.84309 14.1282 4.31491 14.6004C4.30547 14.6058 4.32299 14.6004 4.33378 14.5889C4.72269 14.205 5.10958 13.8197 5.49917 13.4371C5.72092 13.2188 5.85033 13.2161 6.12871 13.3502C6.52099 13.5381 6.9126 13.7395 7.32442 13.8736C8.00856 14.0965 8.02137 14.0548 8.0126 14.8382C8.00788 15.2888 8.01193 15.7402 8.01193 16.1942H10.03V16.1935Z" fill="#FF5427"/>
<path d="M8.99623 4.53383C11.1505 4.51811 12.9578 6.31123 12.9666 8.4734C12.9754 10.6595 11.209 12.4494 9.0264 12.4664C6.83816 12.4834 5.04469 10.7035 5.03337 8.50358C5.02269 6.33135 6.80107 4.54955 8.9956 4.5332L8.99623 4.53383ZM9.0176 5.2839C7.24991 5.27321 5.7959 6.71298 5.78647 8.48472C5.77641 10.2514 7.2103 11.6937 8.99308 11.7107C10.7344 11.7277 12.2041 10.2715 12.2135 8.52056C12.223 6.75008 10.7859 5.29459 9.0176 5.2839Z" fill="#FF5427"/>
</svg>
