<svg width="25" height="24" viewBox="0 0 25 24" fill="none" xmlns="http://www.w3.org/2000/svg">
<g clip-path="url(#clip0_105_2150)">
<path d="M18.7732 0C19.0919 0.0625807 19.4136 0.113389 19.7291 0.189601C20.3494 0.338927 20.5303 0.967832 20.0815 1.41705C19.3184 2.18041 18.5523 2.94129 17.7767 3.69288C17.6453 3.8199 17.6221 3.93763 17.6559 4.09934C17.7974 4.77844 17.9364 5.45753 18.0684 6.13848C18.0947 6.27356 18.1586 6.33118 18.2931 6.35659C18.9886 6.48856 19.6821 6.62674 20.375 6.76863C20.5246 6.79899 20.6304 6.77234 20.7443 6.65834C21.4942 5.90365 22.2573 5.16198 23.0078 4.40729C23.2287 4.18547 23.4753 4.06465 23.7833 4.1452C24.0938 4.22636 24.2352 4.4581 24.3122 4.76047C25.2067 8.29039 22.8081 11.8742 19.1801 12.4356C18.1492 12.5948 17.1452 12.5199 16.1599 12.1933C16.0235 12.1481 15.9509 12.1791 15.8626 12.2757C13.1473 15.2517 10.4294 18.2252 7.71217 21.1987C7.26212 21.6913 6.82395 22.1957 6.35763 22.674C5.40181 23.6549 4.23692 23.9901 2.91931 23.6041C1.60169 23.2181 0.816759 22.3091 0.543847 20.9726C0.536336 20.9373 0.514428 20.905 0.498779 20.871V19.9434C0.513802 19.9093 0.536962 19.8765 0.543221 19.8412C0.669036 19.0902 1.02019 18.4594 1.58229 17.9458C2.0699 17.5003 2.5644 17.0628 3.05639 16.6223C6.06656 13.927 9.07611 11.2317 12.0875 8.53885C12.1858 8.45087 12.2158 8.37961 12.1702 8.24454C11.8409 7.26927 11.7364 6.27046 11.9298 5.25554C12.4061 2.75169 13.8696 1.08804 16.3108 0.281303C16.7139 0.149326 17.1402 0.092322 17.5552 0H18.7732ZM3.97528 19.6175C3.59846 19.6169 3.27109 19.9409 3.27422 20.3121C3.27735 20.6745 3.59345 20.9912 3.96213 21.0005C4.33457 21.0098 4.6682 20.6869 4.67133 20.3139C4.67446 19.9366 4.35711 19.6187 3.97528 19.6181V19.6175Z" fill="#939393"/>
</g>
<defs>
<clipPath id="clip0_105_2150">
<rect width="24" height="24" fill="white" transform="translate(0.5)"/>
</clipPath>
</defs>
</svg>
