<svg width="18" height="19" viewBox="0 0 18 19" fill="none" xmlns="http://www.w3.org/2000/svg">
<mask id="path-1-outside-1_105_2260" maskUnits="userSpaceOnUse" x="-0.500488" y="0" width="19" height="19" fill="black">
<rect fill="white" x="-0.500488" width="19" height="19"/>
<path d="M17.5 15.0153C17.4482 15.2342 17.4053 15.4555 17.3425 15.6711C17.2487 15.9932 16.9762 16.0624 16.7375 15.8295C16.33 15.4312 15.9235 15.0319 15.5213 14.6286C15.4416 14.5484 15.3581 14.5258 15.2478 14.5105C14.8811 14.4602 14.6182 14.589 14.3719 14.8665C14.003 15.2825 13.9817 15.2658 14.0179 15.8205C14.0219 15.8824 14.0671 15.9519 14.1127 15.9992C14.5092 16.4081 14.9111 16.8124 15.3099 17.219C15.5695 17.4839 15.5034 17.7458 15.1514 17.8532C13.2378 18.4379 11.2521 17.2167 10.9088 15.2402C10.8343 14.811 10.8493 14.382 10.9443 13.9548C10.9583 13.8919 10.9417 13.7934 10.8998 13.7508C10.2872 13.1276 9.66764 12.5107 9.04973 11.8931C9.03477 11.8781 9.0155 11.8675 8.97295 11.8362C8.82869 11.9889 8.68843 12.1443 8.54085 12.2927C8.07716 12.7599 7.61248 13.2264 7.14349 13.6883C7.05906 13.7711 7.0328 13.8473 7.0574 13.9648C7.55764 16.3256 5.54836 18.3983 3.18441 17.9308C1.93696 17.6839 1.08173 16.9192 0.683856 15.7084C0.298619 14.5368 0.51866 13.4434 1.33002 12.5147C2.17628 11.5454 3.26219 11.2013 4.52992 11.4366C4.5944 11.4486 4.69146 11.4369 4.73334 11.396C5.36056 10.7794 5.98112 10.1562 6.60302 9.53427C6.61432 9.52295 6.6223 9.50765 6.65055 9.46772C6.50962 9.33529 6.36271 9.20318 6.22277 9.0641C5.74413 8.58827 5.26649 8.11178 4.79284 7.63096C4.71739 7.5541 4.64891 7.53679 4.54488 7.55942C2.67054 7.96737 0.879965 6.75451 0.553893 4.85286C0.46448 4.33178 0.508023 3.81636 0.672223 3.31292C0.769613 3.01478 1.03984 2.94423 1.26254 3.16551C1.67869 3.57845 2.09152 3.99505 2.50102 4.41464C2.57647 4.49184 2.65591 4.51147 2.75995 4.52611C3.12558 4.57669 3.41808 4.47553 3.62981 4.16608C3.64211 4.14811 3.65873 4.1318 3.67668 4.11916C3.97616 3.9092 4.08252 3.62503 4.03366 3.264C4.01871 3.1542 3.99943 3.07001 3.91766 2.99015C3.50982 2.59219 3.10697 2.18957 2.70378 1.78661C2.43621 1.51942 2.507 1.24557 2.87263 1.14874C3.08935 1.09117 3.31072 1.04925 3.53043 1.00033C3.71856 1.00033 3.90636 1.00033 4.09449 1.00033C4.32051 1.04725 4.55252 1.0752 4.77156 1.14375C6.46508 1.67448 7.4187 3.30127 7.05939 5.0382C7.03812 5.14069 7.05607 5.21123 7.13285 5.2871C7.66833 5.8155 8.19915 6.34822 8.72964 6.88128C8.81473 6.9668 8.89019 7.06163 8.97361 7.15613C9.03444 7.0989 9.07134 7.06629 9.10624 7.03135C9.69257 6.44439 10.2769 5.85576 10.8659 5.27146C10.9453 5.1926 10.9669 5.12339 10.9433 5.01092C10.5694 3.22341 11.642 1.52907 13.4173 1.09517C13.5606 1.06023 13.7055 1.03161 13.8497 1C14.0598 1 14.2702 1 14.4803 1C14.5169 1.01065 14.5527 1.02496 14.59 1.03095C15.9282 1.24324 16.8416 1.98227 17.3066 3.25502C17.4073 3.53053 17.4372 3.832 17.5 4.12182V4.55373C17.4901 4.59632 17.4761 4.63858 17.4708 4.68217C17.2331 6.665 15.4143 7.97103 13.4625 7.55676C13.3545 7.5338 13.2804 7.54844 13.1989 7.63096C12.6163 8.22125 12.0279 8.80622 11.4416 9.39318C11.4113 9.42346 11.3844 9.45707 11.3558 9.48935C11.3691 9.50998 11.3758 9.52562 11.3871 9.53693C12.0083 10.1595 12.6282 10.7831 13.2548 11.3996C13.297 11.4412 13.3947 11.4529 13.4592 11.4399C13.8361 11.365 14.2134 11.3298 14.5953 11.3903C15.9129 11.5996 16.8256 12.3194 17.3023 13.5698C17.3973 13.819 17.4359 14.0899 17.5004 14.3511V15.0153H17.5ZM1.21036 4.05095C1.1954 4.09753 1.18676 4.11251 1.18609 4.12748C1.13624 4.98064 1.41212 5.71102 2.04864 6.28068C2.78355 6.93852 3.64078 7.13351 4.59307 6.86132C4.79018 6.80509 4.93942 6.83836 5.08667 6.9861C7.23124 9.13697 9.37846 11.2848 11.5277 13.4307C11.665 13.5678 11.7005 13.7099 11.654 13.8956C11.6005 14.1092 11.5433 14.3275 11.535 14.5454C11.4835 15.9143 12.3779 17.0354 13.7274 17.2936C13.9568 17.3375 14.1968 17.3252 14.4318 17.3388L14.464 17.2596C14.1459 16.9528 13.8285 16.6457 13.5091 16.3403C13.3987 16.2348 13.3449 16.112 13.3488 15.9563C13.3552 15.6907 13.3382 15.4242 13.3565 15.1597C13.3645 15.0479 13.4113 14.9164 13.4858 14.8359C13.7557 14.5434 14.0375 14.2609 14.3314 13.9924C14.4161 13.9149 14.5524 13.8696 14.6701 13.858C14.8838 13.8367 15.1019 13.8653 15.3162 13.8487C15.5689 13.829 15.7583 13.9119 15.9318 14.0975C16.206 14.3917 16.5015 14.6655 16.7894 14.9494C16.806 14.9284 16.8153 14.9208 16.8183 14.9111C16.8233 14.8955 16.8253 14.8788 16.8266 14.8622C16.8625 14.2812 16.7379 13.7368 16.4141 13.2527C15.7261 12.2245 14.6179 11.8159 13.42 12.1423C13.2142 12.1982 13.0643 12.1583 12.9137 12.0072C10.7775 9.86402 8.6379 7.7238 6.49599 5.58624C6.34443 5.43484 6.30952 5.2851 6.36935 5.07913C6.7978 3.60573 5.93891 2.11736 4.44649 1.74236C4.16363 1.67115 3.87412 1.63887 3.55735 1.69145C3.6112 1.74868 3.6471 1.78894 3.68532 1.82687C3.96386 2.10372 4.24041 2.38289 4.52261 2.65574C4.64193 2.77121 4.69877 2.90131 4.69412 3.06868C4.68681 3.3229 4.70741 3.57911 4.68548 3.83167C4.67484 3.95345 4.62166 4.0942 4.54022 4.18305C4.27165 4.47686 3.98048 4.74938 3.70094 5.03321C3.59757 5.13803 3.48024 5.19593 3.33133 5.18528C3.30374 5.18328 3.27615 5.18594 3.24856 5.18495C2.94576 5.1743 2.61204 5.23952 2.34912 5.13137C2.09218 5.02556 1.90605 4.74506 1.69265 4.53775C1.53444 4.38436 1.3822 4.22464 1.21036 4.05061V4.05095ZM7.08897 9.96551C7.05441 10.0071 7.01917 10.0573 6.97663 10.0999C6.35506 10.7222 5.72652 11.3374 5.11359 11.968C4.93543 12.1513 4.7596 12.1959 4.52028 12.1284C4.3255 12.0735 4.11975 12.0352 3.91799 12.0305C2.2524 11.9906 0.996966 13.3911 1.20471 15.0479C1.42043 16.7675 3.30806 17.8273 4.8869 17.1149C6.1204 16.5582 6.73299 15.2721 6.37268 13.9591C6.30321 13.7066 6.35074 13.5342 6.53588 13.3542C7.16177 12.7446 7.77469 12.1214 8.39227 11.5031C8.43415 11.4612 8.47337 11.4173 8.50495 11.3837C8.03562 10.9138 7.57526 10.453 7.08897 9.96617V9.96551ZM10.9151 9.01884C10.94 8.98324 10.9689 8.92734 11.0115 8.88508C11.6201 8.27383 12.2373 7.67056 12.837 7.05065C13.0301 6.851 13.2126 6.79943 13.4835 6.87396C14.4052 7.12718 15.2322 6.91955 15.9481 6.28999C16.8645 5.48442 17.0978 4.10685 16.5045 3.05138C15.8773 1.93568 14.5903 1.41028 13.4007 1.78395C12.0266 2.21585 11.2548 3.60107 11.6267 4.99195C11.6965 5.25349 11.6527 5.43617 11.4552 5.62716C10.8273 6.23443 10.2164 6.85966 9.5995 7.4779C9.55729 7.52016 9.51707 7.56474 9.48682 7.59669C9.95815 8.06619 10.4228 8.52871 10.9151 9.01884Z"/>
</mask>
<path d="M17.5 15.0153C17.4482 15.2342 17.4053 15.4555 17.3425 15.6711C17.2487 15.9932 16.9762 16.0624 16.7375 15.8295C16.33 15.4312 15.9235 15.0319 15.5213 14.6286C15.4416 14.5484 15.3581 14.5258 15.2478 14.5105C14.8811 14.4602 14.6182 14.589 14.3719 14.8665C14.003 15.2825 13.9817 15.2658 14.0179 15.8205C14.0219 15.8824 14.0671 15.9519 14.1127 15.9992C14.5092 16.4081 14.9111 16.8124 15.3099 17.219C15.5695 17.4839 15.5034 17.7458 15.1514 17.8532C13.2378 18.4379 11.2521 17.2167 10.9088 15.2402C10.8343 14.811 10.8493 14.382 10.9443 13.9548C10.9583 13.8919 10.9417 13.7934 10.8998 13.7508C10.2872 13.1276 9.66764 12.5107 9.04973 11.8931C9.03477 11.8781 9.0155 11.8675 8.97295 11.8362C8.82869 11.9889 8.68843 12.1443 8.54085 12.2927C8.07716 12.7599 7.61248 13.2264 7.14349 13.6883C7.05906 13.7711 7.0328 13.8473 7.0574 13.9648C7.55764 16.3256 5.54836 18.3983 3.18441 17.9308C1.93696 17.6839 1.08173 16.9192 0.683856 15.7084C0.298619 14.5368 0.51866 13.4434 1.33002 12.5147C2.17628 11.5454 3.26219 11.2013 4.52992 11.4366C4.5944 11.4486 4.69146 11.4369 4.73334 11.396C5.36056 10.7794 5.98112 10.1562 6.60302 9.53427C6.61432 9.52295 6.6223 9.50765 6.65055 9.46772C6.50962 9.33529 6.36271 9.20318 6.22277 9.0641C5.74413 8.58827 5.26649 8.11178 4.79284 7.63096C4.71739 7.5541 4.64891 7.53679 4.54488 7.55942C2.67054 7.96737 0.879965 6.75451 0.553893 4.85286C0.46448 4.33178 0.508023 3.81636 0.672223 3.31292C0.769613 3.01478 1.03984 2.94423 1.26254 3.16551C1.67869 3.57845 2.09152 3.99505 2.50102 4.41464C2.57647 4.49184 2.65591 4.51147 2.75995 4.52611C3.12558 4.57669 3.41808 4.47553 3.62981 4.16608C3.64211 4.14811 3.65873 4.1318 3.67668 4.11916C3.97616 3.9092 4.08252 3.62503 4.03366 3.264C4.01871 3.1542 3.99943 3.07001 3.91766 2.99015C3.50982 2.59219 3.10697 2.18957 2.70378 1.78661C2.43621 1.51942 2.507 1.24557 2.87263 1.14874C3.08935 1.09117 3.31072 1.04925 3.53043 1.00033C3.71856 1.00033 3.90636 1.00033 4.09449 1.00033C4.32051 1.04725 4.55252 1.0752 4.77156 1.14375C6.46508 1.67448 7.4187 3.30127 7.05939 5.0382C7.03812 5.14069 7.05607 5.21123 7.13285 5.2871C7.66833 5.8155 8.19915 6.34822 8.72964 6.88128C8.81473 6.9668 8.89019 7.06163 8.97361 7.15613C9.03444 7.0989 9.07134 7.06629 9.10624 7.03135C9.69257 6.44439 10.2769 5.85576 10.8659 5.27146C10.9453 5.1926 10.9669 5.12339 10.9433 5.01092C10.5694 3.22341 11.642 1.52907 13.4173 1.09517C13.5606 1.06023 13.7055 1.03161 13.8497 1C14.0598 1 14.2702 1 14.4803 1C14.5169 1.01065 14.5527 1.02496 14.59 1.03095C15.9282 1.24324 16.8416 1.98227 17.3066 3.25502C17.4073 3.53053 17.4372 3.832 17.5 4.12182V4.55373C17.4901 4.59632 17.4761 4.63858 17.4708 4.68217C17.2331 6.665 15.4143 7.97103 13.4625 7.55676C13.3545 7.5338 13.2804 7.54844 13.1989 7.63096C12.6163 8.22125 12.0279 8.80622 11.4416 9.39318C11.4113 9.42346 11.3844 9.45707 11.3558 9.48935C11.3691 9.50998 11.3758 9.52562 11.3871 9.53693C12.0083 10.1595 12.6282 10.7831 13.2548 11.3996C13.297 11.4412 13.3947 11.4529 13.4592 11.4399C13.8361 11.365 14.2134 11.3298 14.5953 11.3903C15.9129 11.5996 16.8256 12.3194 17.3023 13.5698C17.3973 13.819 17.4359 14.0899 17.5004 14.3511V15.0153H17.5ZM1.21036 4.05095C1.1954 4.09753 1.18676 4.11251 1.18609 4.12748C1.13624 4.98064 1.41212 5.71102 2.04864 6.28068C2.78355 6.93852 3.64078 7.13351 4.59307 6.86132C4.79018 6.80509 4.93942 6.83836 5.08667 6.9861C7.23124 9.13697 9.37846 11.2848 11.5277 13.4307C11.665 13.5678 11.7005 13.7099 11.654 13.8956C11.6005 14.1092 11.5433 14.3275 11.535 14.5454C11.4835 15.9143 12.3779 17.0354 13.7274 17.2936C13.9568 17.3375 14.1968 17.3252 14.4318 17.3388L14.464 17.2596C14.1459 16.9528 13.8285 16.6457 13.5091 16.3403C13.3987 16.2348 13.3449 16.112 13.3488 15.9563C13.3552 15.6907 13.3382 15.4242 13.3565 15.1597C13.3645 15.0479 13.4113 14.9164 13.4858 14.8359C13.7557 14.5434 14.0375 14.2609 14.3314 13.9924C14.4161 13.9149 14.5524 13.8696 14.6701 13.858C14.8838 13.8367 15.1019 13.8653 15.3162 13.8487C15.5689 13.829 15.7583 13.9119 15.9318 14.0975C16.206 14.3917 16.5015 14.6655 16.7894 14.9494C16.806 14.9284 16.8153 14.9208 16.8183 14.9111C16.8233 14.8955 16.8253 14.8788 16.8266 14.8622C16.8625 14.2812 16.7379 13.7368 16.4141 13.2527C15.7261 12.2245 14.6179 11.8159 13.42 12.1423C13.2142 12.1982 13.0643 12.1583 12.9137 12.0072C10.7775 9.86402 8.6379 7.7238 6.49599 5.58624C6.34443 5.43484 6.30952 5.2851 6.36935 5.07913C6.7978 3.60573 5.93891 2.11736 4.44649 1.74236C4.16363 1.67115 3.87412 1.63887 3.55735 1.69145C3.6112 1.74868 3.6471 1.78894 3.68532 1.82687C3.96386 2.10372 4.24041 2.38289 4.52261 2.65574C4.64193 2.77121 4.69877 2.90131 4.69412 3.06868C4.68681 3.3229 4.70741 3.57911 4.68548 3.83167C4.67484 3.95345 4.62166 4.0942 4.54022 4.18305C4.27165 4.47686 3.98048 4.74938 3.70094 5.03321C3.59757 5.13803 3.48024 5.19593 3.33133 5.18528C3.30374 5.18328 3.27615 5.18594 3.24856 5.18495C2.94576 5.1743 2.61204 5.23952 2.34912 5.13137C2.09218 5.02556 1.90605 4.74506 1.69265 4.53775C1.53444 4.38436 1.3822 4.22464 1.21036 4.05061V4.05095ZM7.08897 9.96551C7.05441 10.0071 7.01917 10.0573 6.97663 10.0999C6.35506 10.7222 5.72652 11.3374 5.11359 11.968C4.93543 12.1513 4.7596 12.1959 4.52028 12.1284C4.3255 12.0735 4.11975 12.0352 3.91799 12.0305C2.2524 11.9906 0.996966 13.3911 1.20471 15.0479C1.42043 16.7675 3.30806 17.8273 4.8869 17.1149C6.1204 16.5582 6.73299 15.2721 6.37268 13.9591C6.30321 13.7066 6.35074 13.5342 6.53588 13.3542C7.16177 12.7446 7.77469 12.1214 8.39227 11.5031C8.43415 11.4612 8.47337 11.4173 8.50495 11.3837C8.03562 10.9138 7.57526 10.453 7.08897 9.96617V9.96551ZM10.9151 9.01884C10.94 8.98324 10.9689 8.92734 11.0115 8.88508C11.6201 8.27383 12.2373 7.67056 12.837 7.05065C13.0301 6.851 13.2126 6.79943 13.4835 6.87396C14.4052 7.12718 15.2322 6.91955 15.9481 6.28999C16.8645 5.48442 17.0978 4.10685 16.5045 3.05138C15.8773 1.93568 14.5903 1.41028 13.4007 1.78395C12.0266 2.21585 11.2548 3.60107 11.6267 4.99195C11.6965 5.25349 11.6527 5.43617 11.4552 5.62716C10.8273 6.23443 10.2164 6.85966 9.5995 7.4779C9.55729 7.52016 9.51707 7.56474 9.48682 7.59669C9.95815 8.06619 10.4228 8.52871 10.9151 9.01884Z" fill="#FF5427"/>
<path d="M17.5 15.0153C17.4482 15.2342 17.4053 15.4555 17.3425 15.6711C17.2487 15.9932 16.9762 16.0624 16.7375 15.8295C16.33 15.4312 15.9235 15.0319 15.5213 14.6286C15.4416 14.5484 15.3581 14.5258 15.2478 14.5105C14.8811 14.4602 14.6182 14.589 14.3719 14.8665C14.003 15.2825 13.9817 15.2658 14.0179 15.8205C14.0219 15.8824 14.0671 15.9519 14.1127 15.9992C14.5092 16.4081 14.9111 16.8124 15.3099 17.219C15.5695 17.4839 15.5034 17.7458 15.1514 17.8532C13.2378 18.4379 11.2521 17.2167 10.9088 15.2402C10.8343 14.811 10.8493 14.382 10.9443 13.9548C10.9583 13.8919 10.9417 13.7934 10.8998 13.7508C10.2872 13.1276 9.66764 12.5107 9.04973 11.8931C9.03477 11.8781 9.0155 11.8675 8.97295 11.8362C8.82869 11.9889 8.68843 12.1443 8.54085 12.2927C8.07716 12.7599 7.61248 13.2264 7.14349 13.6883C7.05906 13.7711 7.0328 13.8473 7.0574 13.9648C7.55764 16.3256 5.54836 18.3983 3.18441 17.9308C1.93696 17.6839 1.08173 16.9192 0.683856 15.7084C0.298619 14.5368 0.51866 13.4434 1.33002 12.5147C2.17628 11.5454 3.26219 11.2013 4.52992 11.4366C4.5944 11.4486 4.69146 11.4369 4.73334 11.396C5.36056 10.7794 5.98112 10.1562 6.60302 9.53427C6.61432 9.52295 6.6223 9.50765 6.65055 9.46772C6.50962 9.33529 6.36271 9.20318 6.22277 9.0641C5.74413 8.58827 5.26649 8.11178 4.79284 7.63096C4.71739 7.5541 4.64891 7.53679 4.54488 7.55942C2.67054 7.96737 0.879965 6.75451 0.553893 4.85286C0.46448 4.33178 0.508023 3.81636 0.672223 3.31292C0.769613 3.01478 1.03984 2.94423 1.26254 3.16551C1.67869 3.57845 2.09152 3.99505 2.50102 4.41464C2.57647 4.49184 2.65591 4.51147 2.75995 4.52611C3.12558 4.57669 3.41808 4.47553 3.62981 4.16608C3.64211 4.14811 3.65873 4.1318 3.67668 4.11916C3.97616 3.9092 4.08252 3.62503 4.03366 3.264C4.01871 3.1542 3.99943 3.07001 3.91766 2.99015C3.50982 2.59219 3.10697 2.18957 2.70378 1.78661C2.43621 1.51942 2.507 1.24557 2.87263 1.14874C3.08935 1.09117 3.31072 1.04925 3.53043 1.00033C3.71856 1.00033 3.90636 1.00033 4.09449 1.00033C4.32051 1.04725 4.55252 1.0752 4.77156 1.14375C6.46508 1.67448 7.4187 3.30127 7.05939 5.0382C7.03812 5.14069 7.05607 5.21123 7.13285 5.2871C7.66833 5.8155 8.19915 6.34822 8.72964 6.88128C8.81473 6.9668 8.89019 7.06163 8.97361 7.15613C9.03444 7.0989 9.07134 7.06629 9.10624 7.03135C9.69257 6.44439 10.2769 5.85576 10.8659 5.27146C10.9453 5.1926 10.9669 5.12339 10.9433 5.01092C10.5694 3.22341 11.642 1.52907 13.4173 1.09517C13.5606 1.06023 13.7055 1.03161 13.8497 1C14.0598 1 14.2702 1 14.4803 1C14.5169 1.01065 14.5527 1.02496 14.59 1.03095C15.9282 1.24324 16.8416 1.98227 17.3066 3.25502C17.4073 3.53053 17.4372 3.832 17.5 4.12182V4.55373C17.4901 4.59632 17.4761 4.63858 17.4708 4.68217C17.2331 6.665 15.4143 7.97103 13.4625 7.55676C13.3545 7.5338 13.2804 7.54844 13.1989 7.63096C12.6163 8.22125 12.0279 8.80622 11.4416 9.39318C11.4113 9.42346 11.3844 9.45707 11.3558 9.48935C11.3691 9.50998 11.3758 9.52562 11.3871 9.53693C12.0083 10.1595 12.6282 10.7831 13.2548 11.3996C13.297 11.4412 13.3947 11.4529 13.4592 11.4399C13.8361 11.365 14.2134 11.3298 14.5953 11.3903C15.9129 11.5996 16.8256 12.3194 17.3023 13.5698C17.3973 13.819 17.4359 14.0899 17.5004 14.3511V15.0153H17.5ZM1.21036 4.05095C1.1954 4.09753 1.18676 4.11251 1.18609 4.12748C1.13624 4.98064 1.41212 5.71102 2.04864 6.28068C2.78355 6.93852 3.64078 7.13351 4.59307 6.86132C4.79018 6.80509 4.93942 6.83836 5.08667 6.9861C7.23124 9.13697 9.37846 11.2848 11.5277 13.4307C11.665 13.5678 11.7005 13.7099 11.654 13.8956C11.6005 14.1092 11.5433 14.3275 11.535 14.5454C11.4835 15.9143 12.3779 17.0354 13.7274 17.2936C13.9568 17.3375 14.1968 17.3252 14.4318 17.3388L14.464 17.2596C14.1459 16.9528 13.8285 16.6457 13.5091 16.3403C13.3987 16.2348 13.3449 16.112 13.3488 15.9563C13.3552 15.6907 13.3382 15.4242 13.3565 15.1597C13.3645 15.0479 13.4113 14.9164 13.4858 14.8359C13.7557 14.5434 14.0375 14.2609 14.3314 13.9924C14.4161 13.9149 14.5524 13.8696 14.6701 13.858C14.8838 13.8367 15.1019 13.8653 15.3162 13.8487C15.5689 13.829 15.7583 13.9119 15.9318 14.0975C16.206 14.3917 16.5015 14.6655 16.7894 14.9494C16.806 14.9284 16.8153 14.9208 16.8183 14.9111C16.8233 14.8955 16.8253 14.8788 16.8266 14.8622C16.8625 14.2812 16.7379 13.7368 16.4141 13.2527C15.7261 12.2245 14.6179 11.8159 13.42 12.1423C13.2142 12.1982 13.0643 12.1583 12.9137 12.0072C10.7775 9.86402 8.6379 7.7238 6.49599 5.58624C6.34443 5.43484 6.30952 5.2851 6.36935 5.07913C6.7978 3.60573 5.93891 2.11736 4.44649 1.74236C4.16363 1.67115 3.87412 1.63887 3.55735 1.69145C3.6112 1.74868 3.6471 1.78894 3.68532 1.82687C3.96386 2.10372 4.24041 2.38289 4.52261 2.65574C4.64193 2.77121 4.69877 2.90131 4.69412 3.06868C4.68681 3.3229 4.70741 3.57911 4.68548 3.83167C4.67484 3.95345 4.62166 4.0942 4.54022 4.18305C4.27165 4.47686 3.98048 4.74938 3.70094 5.03321C3.59757 5.13803 3.48024 5.19593 3.33133 5.18528C3.30374 5.18328 3.27615 5.18594 3.24856 5.18495C2.94576 5.1743 2.61204 5.23952 2.34912 5.13137C2.09218 5.02556 1.90605 4.74506 1.69265 4.53775C1.53444 4.38436 1.3822 4.22464 1.21036 4.05061V4.05095ZM7.08897 9.96551C7.05441 10.0071 7.01917 10.0573 6.97663 10.0999C6.35506 10.7222 5.72652 11.3374 5.11359 11.968C4.93543 12.1513 4.7596 12.1959 4.52028 12.1284C4.3255 12.0735 4.11975 12.0352 3.91799 12.0305C2.2524 11.9906 0.996966 13.3911 1.20471 15.0479C1.42043 16.7675 3.30806 17.8273 4.8869 17.1149C6.1204 16.5582 6.73299 15.2721 6.37268 13.9591C6.30321 13.7066 6.35074 13.5342 6.53588 13.3542C7.16177 12.7446 7.77469 12.1214 8.39227 11.5031C8.43415 11.4612 8.47337 11.4173 8.50495 11.3837C8.03562 10.9138 7.57526 10.453 7.08897 9.96617V9.96551ZM10.9151 9.01884C10.94 8.98324 10.9689 8.92734 11.0115 8.88508C11.6201 8.27383 12.2373 7.67056 12.837 7.05065C13.0301 6.851 13.2126 6.79943 13.4835 6.87396C14.4052 7.12718 15.2322 6.91955 15.9481 6.28999C16.8645 5.48442 17.0978 4.10685 16.5045 3.05138C15.8773 1.93568 14.5903 1.41028 13.4007 1.78395C12.0266 2.21585 11.2548 3.60107 11.6267 4.99195C11.6965 5.25349 11.6527 5.43617 11.4552 5.62716C10.8273 6.23443 10.2164 6.85966 9.5995 7.4779C9.55729 7.52016 9.51707 7.56474 9.48682 7.59669C9.95815 8.06619 10.4228 8.52871 10.9151 9.01884Z" stroke="#FF5427" stroke-width="0.4" mask="url(#path-1-outside-1_105_2260)"/>
<path d="M6.6138 6.95078H6.93056H6.93089H7.23236L7.10453 7.04607C7.12144 7.05694 7.13843 7.06789 7.15582 7.07937C7.20971 7.11493 7.26395 7.15345 7.31232 7.20129L7.31242 7.20138C7.91444 7.79836 8.51369 8.3982 9.11275 8.99784C9.28388 9.16914 9.45499 9.34042 9.62615 9.51162C9.70523 9.59068 9.78431 9.66975 9.8634 9.74882C10.3398 10.2251 10.8163 10.7015 11.2918 11.1784C11.343 11.2296 11.4 11.2898 11.4439 11.3598C11.554 11.5342 11.5174 11.7601 11.3707 11.8944L6.6138 6.95078ZM6.6138 6.95078L6.75255 7.04809M6.6138 6.95078L6.75255 7.04809M6.75255 7.04809C6.74035 7.05575 6.72763 7.06388 6.71414 7.07284C6.66296 7.10684 6.6013 7.15304 6.56704 7.22239M6.75255 7.04809L11.3706 11.8945C11.2309 12.0225 11.0112 12.0428 10.8494 11.934L10.8494 11.9339C10.7913 11.8948 10.7406 11.8469 10.6968 11.8035L10.6966 11.8033C9.3664 10.4739 8.03649 9.14392 6.70725 7.81358L6.70724 7.81357C6.6989 7.80522 6.68989 7.79683 6.67916 7.78684C6.67698 7.78481 6.67473 7.78272 6.67241 7.78054C6.65942 7.76843 6.6444 7.75424 6.63015 7.73907C6.60388 7.71111 6.56765 7.66716 6.55675 7.60945M6.56704 7.22239C6.56705 7.22237 6.56706 7.22235 6.56707 7.22232L6.65667 7.26673L6.567 7.22246C6.56701 7.22244 6.56702 7.22241 6.56704 7.22239ZM6.56704 7.22239C6.53433 7.28842 6.52921 7.36272 6.532 7.42631C6.53484 7.49102 6.54662 7.55639 6.55675 7.60945M6.55675 7.60945C6.55674 7.6094 6.55674 7.60936 6.55673 7.60931L6.655 7.59083L6.55678 7.60959C6.55677 7.60954 6.55676 7.6095 6.55675 7.60945ZM10.9053 11.851C11.0279 11.9335 11.1968 11.9182 11.3031 11.8207L10.9053 11.851ZM10.9053 11.851C10.8554 11.8174 10.8102 11.7751 10.7673 11.7325L10.9053 11.851Z" fill="#FF5427" stroke="#FF5427" stroke-width="0.2"/>
<path d="M12.4046 12.7064C12.3332 12.8438 12.1889 12.9442 12.0309 12.9488L12.0309 12.9488C11.7999 12.9554 11.5992 12.7588 11.594 12.528C11.5883 12.294 11.7785 12.0963 12.0128 12.092L12.4046 12.7064ZM12.4046 12.7064L12.4579 12.7596L12.4517 12.5099C12.446 12.2789 12.2436 12.0876 12.0128 12.092L12.4046 12.7064Z" fill="#FF5427" stroke="#FF5427" stroke-width="0.2"/>
<path d="M5.98767 6.91276H5.98767C5.75622 6.91146 5.55841 6.71459 5.56017 6.48325L5.56017 6.48324C5.56192 6.25488 5.76399 6.05494 5.99245 6.05626L5.98767 6.91276ZM5.98767 6.91276C6.22149 6.91407 6.41632 6.72237 6.41763 6.48823M5.98767 6.91276L6.41763 6.48823M6.41763 6.48823C6.41893 6.25652 6.22405 6.05758 5.99246 6.05626L6.41763 6.48823Z" fill="#FF5427" stroke="#FF5427" stroke-width="0.2"/>
<path d="M2.07189 14.677C2.06731 15.6387 2.85975 16.4356 3.82464 16.4409C4.78698 16.4462 5.58154 15.6533 5.58647 14.686L5.58647 14.686C5.59105 13.7213 4.80123 12.9277 3.83361 12.9234L3.59047 12.9224L3.60583 12.9377C2.74758 13.0472 2.07611 13.787 2.07189 14.677ZM2.07189 14.677L2.17189 14.6775M2.07189 14.677L2.17189 14.6775M2.17189 14.6775C2.16757 15.5836 2.91511 16.3359 3.82519 16.3409C4.73162 16.3459 5.48182 15.5982 5.48647 14.6855L3.69706 13.0288C2.85101 13.0955 2.176 13.8109 2.17189 14.6775ZM2.93534 14.683C2.93446 14.2031 3.32555 13.8023 3.80261 13.788L3.82743 13.7879C4.31524 13.7867 4.72179 14.1915 4.72302 14.6797C4.72392 15.1657 4.31639 15.5756 3.83093 15.5768C3.34623 15.578 2.93624 15.1693 2.93534 14.683Z" fill="#FF5427" stroke="#FF5427" stroke-width="0.2"/>
<path d="M14.1507 5.21735L14.1744 5.21738C14.659 5.21798 15.0654 4.81532 15.0705 4.32742L15.0705 4.3274C15.0755 3.84697 14.6705 3.43448 14.1836 3.42788L14.1507 5.21735ZM14.1507 5.21735C13.6736 5.2037 13.2856 4.80773 13.2844 4.32588M14.1507 5.21735L14.1836 3.42788C13.6935 3.42133 13.2832 3.82922 13.2844 4.32588M13.2844 4.32588L13.1844 4.32613L13.2844 4.32588ZM12.421 4.32284C12.4215 5.29332 13.2075 6.08158 14.1757 6.08087C15.1396 6.08017 15.9329 5.28747 15.9339 4.32324C15.935 3.3635 15.1369 2.56477 14.176 2.56406C13.2092 2.56336 12.4208 3.35392 12.421 4.3225L12.421 4.32247L12.421 4.32284Z" fill="#FF5427" stroke="#FF5427" stroke-width="0.2"/>
</svg>
