<svg width="26" height="25" viewBox="0 0 26 25" fill="none" xmlns="http://www.w3.org/2000/svg">
<path d="M4.94271 0C9.22298 0 13.5032 0 17.7842 0C17.8037 0.0137011 17.8213 0.0365364 17.8422 0.0397985C19.0646 0.220523 20.2504 1.35119 20.2263 3.04818C20.1996 4.88739 20.2204 6.72726 20.2204 8.56647C20.2204 8.66173 20.2204 8.75698 20.2204 8.87377C19.1253 8.89334 18.0966 9.11973 17.0973 9.50271C16.9701 8.60888 16.6655 8.34595 15.7882 8.34595C13.2573 8.34595 10.7271 8.34595 8.19629 8.34595C7.66729 8.34595 7.13829 8.33812 6.60994 8.34986C5.98636 8.36356 5.51998 8.98077 5.66022 9.58688C5.77959 10.1023 6.16835 10.4063 6.72018 10.407C9.50281 10.4083 12.2861 10.4076 15.0687 10.4076C15.1496 10.4076 15.2298 10.4076 15.3107 10.4076C14.3108 11.1606 13.4798 12.0302 12.7962 13.0663C12.5764 12.7075 12.2789 12.5104 11.8967 12.5085C10.1473 12.4987 8.39784 12.4922 6.64843 12.5091C5.94201 12.5163 5.47563 13.2001 5.68175 13.859C5.82264 14.3105 6.22184 14.5767 6.77954 14.578C8.42328 14.5806 10.067 14.5793 11.7108 14.5793C11.7988 14.5793 11.8862 14.5793 12.0128 14.5793C11.5503 15.7778 11.3383 16.9881 11.3729 18.2453C11.4081 19.5098 11.7062 20.7096 12.2326 21.8794H11.9502C9.76111 21.8794 7.57271 21.8801 5.38365 21.8794C3.76926 21.8788 2.50383 20.6156 2.50383 19.0054C2.50123 13.6248 2.49666 8.24482 2.50514 2.86484C2.50775 1.67284 3.08436 0.808367 4.14497 0.277285C4.3948 0.15267 4.67593 0.0906885 4.94271 0ZM8.75073 4.18406V4.17754C8.05083 4.17754 7.35093 4.16384 6.65169 4.18146C6.06594 4.19646 5.62565 4.65643 5.62696 5.20969C5.62761 5.77274 6.08551 6.2425 6.67648 6.24706C8.05996 6.2575 9.4428 6.25359 10.8263 6.24772C11.1407 6.24641 11.4166 6.12571 11.6188 5.87844C11.8745 5.56592 11.9521 5.2123 11.793 4.83063C11.6332 4.44569 11.3448 4.19972 10.9235 4.18863C10.2001 4.16971 9.47541 4.18341 8.75138 4.18341L8.75073 4.18406Z" fill="#939393"/>
<path d="M24.5 18.0353C24.423 18.3871 24.3777 18.7491 24.2645 19.0886C23.5555 21.2052 22.1161 22.5383 19.9132 22.9176C16.935 23.4302 14.2065 21.5014 13.6031 18.5346C13.0918 16.0213 14.5277 13.3644 16.911 12.4128C20.0386 11.1645 23.4296 12.8488 24.3175 16.0953C24.3955 16.3807 24.4399 16.6753 24.5 16.9658V18.0358V18.0353ZM19.8107 18.3064C20.3113 18.3064 20.7807 18.31 21.2501 18.3054C21.6961 18.3013 22.0514 17.9455 22.0565 17.5069C22.0616 17.0638 21.7002 16.6988 21.245 16.6947C20.8383 16.6906 20.4316 16.6942 20.0243 16.6931C19.957 16.6931 19.8902 16.6875 19.8102 16.6839C19.8102 16.1923 19.8138 15.7221 19.8092 15.2519C19.8051 14.8047 19.4504 14.4493 19.012 14.4442C18.5691 14.4391 18.2052 14.8006 18.2011 15.257C18.197 15.6644 18.2006 16.0718 18.1996 16.4797C18.1996 16.5471 18.194 16.6145 18.1914 16.6737C18.1578 16.6839 18.1455 16.6911 18.1338 16.6911C17.6761 16.6926 17.2184 16.6911 16.7607 16.6952C16.3142 16.6998 15.9599 17.0536 15.9538 17.4931C15.9482 17.9363 16.3091 18.3018 16.7647 18.3064C17.1715 18.3105 17.5782 18.3069 17.9855 18.308C18.0528 18.308 18.12 18.3136 18.1766 18.3161C18.1883 18.3437 18.1924 18.3493 18.1924 18.3549C18.1955 18.8323 18.1924 19.3096 18.2026 19.787C18.2133 20.2771 18.6909 20.6416 19.1665 20.5329C19.5574 20.4435 19.8061 20.1433 19.8092 19.7446C19.8128 19.2749 19.8102 18.8047 19.8102 18.3074L19.8107 18.3064Z" fill="#939393"/>
</svg>
