<svg width="27" height="27" viewBox="0 0 27 27" fill="none" xmlns="http://www.w3.org/2000/svg">
<g clip-path="url(#clip0_105_393)">
<path d="M21.6521 16.9965C21.588 16.8465 21.5519 16.7007 21.4718 16.5832C20.7948 15.5946 20.0497 14.683 19.1083 13.9172C17.6822 12.7544 16.0558 12.1993 14.2651 12.0332C14.0728 12.017 13.8726 11.9481 13.6883 11.9765C12.6828 12.1264 11.6733 12.1629 10.6918 12.5478C9.5181 13.0056 8.45653 13.5971 7.53917 14.452C7.12656 14.8369 6.73398 15.2624 6.41751 15.7283C5.68042 16.8263 5.19169 18.0337 4.90326 19.3423C4.76306 19.9703 4.8592 20.5335 5.15163 21.0238C5.47211 21.5586 5.92478 22.0326 6.64985 22.0083C7.27077 21.9881 7.8957 21.9881 8.51662 21.9637C10.1951 21.907 11.8776 21.8462 13.5561 21.7774C13.8926 21.7652 14.2291 21.7125 14.5496 21.6842C14.8901 19.0952 17.5901 16.1254 21.6521 16.9965Z" fill="#929292"/>
<path d="M10.5276 10.0401C11.4329 10.583 12.4424 10.7005 13.504 10.6316C14.4774 10.5709 15.3107 10.1981 16.0398 9.64304C17.4859 8.541 18.3031 7.07026 18.223 5.09307C18.247 4.36783 18.1228 3.96672 17.6501 2.94571C17.0693 1.69376 16.0958 0.871279 14.874 0.360775C14.3493 0.141987 13.7564 0.00018051 13.1915 0.00018051C11.9737 -0.00792273 10.82 0.255433 9.82255 1.06576C8.94926 1.77479 8.3003 2.65399 7.93576 3.6831C7.5632 4.74058 7.6273 5.87503 7.94777 6.96492C8.36039 8.37083 9.32982 9.32296 10.5236 10.0401H10.5276Z" fill="#929292"/>
<path d="M22.2089 11.1341C24.4642 11.3731 26.3791 8.71121 25.4377 6.44635C24.8128 4.93915 23.2264 3.92625 21.4518 4.29089C19.6611 4.65959 18.4994 6.58411 18.888 8.4276C19.2125 9.95911 20.7628 11.2516 22.2049 11.1341H22.2089Z" fill="#929292"/>
<path d="M4.2543 11.9727C5.74852 11.8592 7.41098 10.5141 7.3589 8.63414C7.45104 7.73873 7.17062 6.97703 6.56573 6.29635C5.54021 5.14569 4.48665 4.80131 3.01647 5.17405C1.53828 5.5468 0.220326 7.30521 0.572848 9.13654C0.893323 10.8058 2.39955 12.1104 4.25831 11.9727H4.2543Z" fill="#929292"/>
<path d="M6.22522 13.8077C4.73902 13.1149 3.47715 13.2121 2.04703 14.0994C0.877299 14.8287 0.204302 15.9105 0.0360527 17.2435C-0.0801194 18.1754 -0.00400665 18.694 1.18976 18.6454C1.94688 18.617 2.7 18.5927 3.45712 18.5441C3.56528 18.536 3.7135 18.4104 3.75356 18.301C3.88576 17.9525 3.93783 17.5676 4.09807 17.2394C4.44258 16.5304 4.81113 15.8335 5.22374 15.161C5.51617 14.6829 5.88872 14.2534 6.22122 13.8037L6.22522 13.8077Z" fill="#929292"/>
<path d="M26.3711 14.6789C25.3335 13.0501 23.8433 12.3046 21.9165 12.6085C21.3997 12.6895 20.903 12.9043 20.3982 13.0582V13.2162C21.7562 14.452 22.8258 15.8944 23.4187 17.6204C24.3721 17.5677 25.2534 17.511 26.1387 17.4745C26.7356 17.4502 26.992 17.1787 27 16.5791C27.008 15.8701 26.7276 15.2421 26.3711 14.6829V14.6789Z" fill="#929292"/>
</g>
<defs>
<clipPath id="clip0_105_393">
<rect width="27" height="27" fill="white"/>
</clipPath>
</defs>
</svg>
