<svg width="21" height="22" viewBox="0 0 21 22" fill="none" xmlns="http://www.w3.org/2000/svg">
<g clip-path="url(#clip0_105_58)">
<path d="M4.49754 5.86427C4.49984 2.60659 7.17907 -0.00224368 10.5195 1.448e-06C13.8347 0.00224658 16.5025 2.6268 16.5002 5.87999C16.5002 9.13093 13.8117 11.7375 10.4667 11.733C7.16989 11.7285 4.49754 9.10175 4.49754 5.86427Z" fill="#EAEAEA"/>
<path d="M11.4516 21.9999H11.2335C8.25812 21.9999 5.28271 21.9999 2.30731 21.9999C0.980321 21.9999 -0.0045915 21.0435 1.65543e-07 19.7503C0.002296 19.0027 -0.0137748 18.2528 0.0505085 17.5097C0.199738 15.8168 0.883896 14.335 2.01345 13.0486C2.79862 12.155 3.74451 11.4725 4.83962 10.9808C4.98655 10.9157 5.07609 10.9135 5.20236 11.0347C6.50869 12.301 8.07904 13.0149 9.91571 13.1653C9.98229 13.1698 10.0489 13.1878 10.0925 13.1945C8.2696 16.4702 8.71499 19.3888 11.4516 21.9999Z" fill="#EAEAEA"/>
<path d="M10.4989 16.8585C10.5012 14.0095 12.8498 11.7307 15.7793 11.7329C18.6445 11.7352 21.0023 14.0364 20.9977 16.8271C20.9931 19.7458 18.6698 22.0021 15.6691 21.9999C12.8292 21.9976 10.4943 19.6762 10.4966 16.8608L10.4989 16.8585ZM16.5002 17.5994C16.7321 17.5994 16.941 17.5994 17.1499 17.5994C17.6458 17.5972 17.9948 17.2963 17.9994 16.8698C18.004 16.4454 17.6527 16.1356 17.1591 16.1311C16.9433 16.1311 16.7275 16.1311 16.5002 16.1311C16.5002 15.8864 16.5025 15.6731 16.5002 15.4621C16.4933 15.0018 16.1696 14.6606 15.7426 14.6673C15.3201 14.674 15.0079 15.0018 15.001 15.4531C14.9964 15.6731 15.001 15.8909 15.001 16.1334C14.8954 16.1334 14.8105 16.1334 14.7255 16.1334C13.8692 16.1334 13.5064 16.3489 13.5018 16.8608C13.4949 17.3727 13.8692 17.5994 14.714 17.5994C14.8036 17.5994 14.8954 17.5994 14.9987 17.5994C14.9987 17.8419 14.9964 18.0552 14.9987 18.2685C15.0056 18.7287 15.3293 19.07 15.754 19.0655C16.1742 19.061 16.4887 18.7287 16.4979 18.2797C16.5025 18.0597 16.4979 17.8419 16.4979 17.5994H16.5002Z" fill="#EAEAEA"/>
</g>
<defs>
<clipPath id="clip0_105_58">
<rect width="21" height="22" fill="white"/>
</clipPath>
</defs>
</svg>
