<svg width="13" height="14" viewBox="0 0 13 14" fill="none" xmlns="http://www.w3.org/2000/svg">
<path fill-rule="evenodd" clip-rule="evenodd" d="M10.6223 4.43836C10.6223 2.17536 8.67908 0.34082 6.28204 0.34082C3.88507 0.34082 1.94188 2.17536 1.94188 4.43836C1.94188 5.59417 2.44876 6.6382 3.26409 7.38314C1.31871 8.31343 0 10.1152 0 12.1853H0.000146986L0 12.2014C0 12.7052 0.434673 13.1137 0.970884 13.1137C1.50712 13.1137 1.94188 12.7052 1.94188 12.2014L1.94174 12.1853H1.94189C1.94702 10.1691 3.88823 8.53593 6.28204 8.53593C8.67591 8.53593 10.6171 10.1691 10.6223 12.1853H10.6224C10.6223 12.1906 10.6223 12.196 10.6223 12.2014C10.6223 12.7052 11.0569 13.1137 11.5932 13.1137C12.1294 13.1137 12.5641 12.7052 12.5641 12.2014C12.5641 12.196 12.5641 12.1906 12.564 12.1853H12.5641C12.5641 10.1152 11.2454 8.31345 9.30003 7.38316C10.1154 6.63822 10.6223 5.59418 10.6223 4.43836ZM6.29864 2.14948C7.63235 2.14948 8.71352 3.17068 8.71352 4.43033C8.71352 5.69005 7.63235 6.71125 6.29864 6.71125C4.96493 6.71125 3.88376 5.69005 3.88376 4.43033C3.88376 3.17068 4.96493 2.14948 6.29864 2.14948Z" fill="#FF5427"/>
</svg>
