<svg width="1366" height="454" viewBox="0 0 1366 454" fill="none" xmlns="http://www.w3.org/2000/svg">
<path d="M509.258 193.152H281.629L259.117 215.676H93.2379L17.8246 140.221H-33.3074" stroke="#999999" stroke-opacity="0.6" stroke-width="0.5" stroke-miterlimit="10"/>
<path d="M517.212 269.217H404.368L306.881 366.759H75.16L46.0451 395.871H-33.3074" stroke="#999999" stroke-opacity="0.6" stroke-width="0.5" stroke-miterlimit="10"/>
<path d="M525.014 293.112H380.467" stroke="#999999" stroke-opacity="0.6" stroke-width="0.5" stroke-miterlimit="10"/>
<path d="M-33.3074 83.3486H269.26L281.952 96.0483" stroke="#999999" stroke-opacity="0.6" stroke-width="0.5" stroke-miterlimit="10"/>
<path d="M285.948 99.742L285.244 92.3545L281.895 95.7056L278.546 99.0566L285.948 99.742Z" fill="#999999" fill-opacity="0.6"/>
<path d="M91.6204 245.188L97.3482 249.929V245.188V240.447L91.6204 245.188Z" fill="#999999" fill-opacity="0.6"/>
<path d="M505.452 238.848H343.474L315.292 267.046H266.71" stroke="#999999" stroke-opacity="0.6" stroke-width="0.5" stroke-miterlimit="10"/>
<path d="M268.327 266.97C268.327 268.608 266.995 269.94 265.359 269.94C263.722 269.94 262.39 268.608 262.39 266.97C262.39 265.333 263.722 264 265.359 264C266.995 264 268.327 265.333 268.327 266.97Z" fill="#999999" fill-opacity="0.6"/>
<path d="M148.766 61.0718C148.766 62.7093 147.434 64.0421 145.797 64.0421C144.161 64.0421 142.829 62.7093 142.829 61.0718C142.829 59.4344 144.161 58.1016 145.797 58.1016C147.434 58.1016 148.766 59.4344 148.766 61.0718Z" fill="#999999" fill-opacity="0.6"/>
<path d="M133.828 401.945C133.828 403.582 132.495 404.915 130.859 404.915C129.222 404.915 127.89 403.582 127.89 401.945C127.89 400.307 129.222 398.975 130.859 398.975C132.495 398.975 133.828 400.307 133.828 401.945Z" fill="#999999" fill-opacity="0.6"/>
<path d="M130.859 453.238C159.172 453.238 182.124 430.273 182.124 401.945C182.124 373.616 159.172 350.651 130.859 350.651C102.546 350.651 79.594 373.616 79.594 401.945C79.594 430.273 102.546 453.238 130.859 453.238Z" stroke="#999999" stroke-opacity="0.6" stroke-width="0.5" stroke-miterlimit="10"/>
<path d="M173.849 81.9536C185.38 66.4472 182.164 44.5242 166.666 32.9871C151.169 21.45 129.258 24.6678 117.727 40.1742C106.197 55.6806 109.413 77.6036 124.91 89.1407C140.408 100.678 162.319 97.46 173.849 81.9536Z" stroke="#999999" stroke-opacity="0.6" stroke-width="0.5" stroke-miterlimit="10"/>
<path d="M154.246 341.264C154.246 342.902 152.914 344.234 151.277 344.234C149.641 344.234 148.309 342.902 148.309 341.264C148.309 339.627 149.641 338.294 151.277 338.294C152.914 338.294 154.246 339.627 154.246 341.264Z" fill="#999999" fill-opacity="0.6"/>
<path d="M-33.3074 381.02H20.6028L60.3362 341.264H151.278" stroke="#999999" stroke-opacity="0.6" stroke-width="0.5" stroke-miterlimit="10"/>
<path d="M509.296 160.784H245.454L145.797 61.0718" stroke="#999999" stroke-opacity="0.6" stroke-width="0.5" stroke-miterlimit="10"/>
<path d="M554.415 328.983H274.017L201.097 401.945H133.2" stroke="#999999" stroke-opacity="0.6" stroke-width="0.5" stroke-miterlimit="10"/>
<path d="M533.121 116.992H239.574L220.621 135.956" stroke="#999999" stroke-opacity="0.6" stroke-width="0.5" stroke-miterlimit="10"/>
<path d="M499.515 226.796H335.216L316.833 245.189H97.3484" stroke="#999999" stroke-opacity="0.6" stroke-width="0.5" stroke-miterlimit="10"/>
<path d="M349.506 357.22L342.123 357.924L345.472 361.275L348.821 364.626L349.506 357.22Z" fill="#999999" fill-opacity="0.6"/>
<path d="M108.576 388.693H317.956L345.415 361.237" stroke="#999999" stroke-opacity="0.6" stroke-width="0.5" stroke-miterlimit="10"/>
<path d="M848.761 260.839H1076.39L1098.88 238.315H1264.78L1340.18 313.751H1391.33" stroke="#999999" stroke-opacity="0.6" stroke-width="0.5" stroke-miterlimit="10"/>
<path d="M840.807 184.775H953.651L1051.12 87.2327H1282.86L1311.96 58.1016H1396.08" stroke="#999999" stroke-opacity="0.6" stroke-width="0.5" stroke-miterlimit="10"/>
<path d="M832.986 160.879H977.533" stroke="#999999" stroke-opacity="0.6" stroke-width="0.5" stroke-miterlimit="10"/>
<path d="M1393.9 395.128H1029.56L1016.87 382.429" stroke="#999999" stroke-opacity="0.6" stroke-width="0.5" stroke-miterlimit="10"/>
<path d="M1012.85 378.735L1013.56 386.122L1016.9 382.771L1020.25 379.42L1012.85 378.735Z" fill="#999999" fill-opacity="0.6"/>
<path d="M1266.38 208.784L1260.65 204.043V208.784V213.525L1266.38 208.784Z" fill="#999999" fill-opacity="0.6"/>
<path d="M852.567 215.144H1014.54L1042.71 186.945H1091.29" stroke="#999999" stroke-opacity="0.6" stroke-width="0.5" stroke-miterlimit="10"/>
<path d="M1089.67 187.021C1089.67 185.384 1091 184.051 1092.64 184.051C1094.28 184.051 1095.61 185.384 1095.61 187.021C1095.61 188.658 1094.28 189.991 1092.64 189.991C1091 189.991 1089.67 188.658 1089.67 187.021Z" fill="#999999" fill-opacity="0.6"/>
<path d="M1209.23 392.901C1209.23 391.263 1210.57 389.931 1212.2 389.931C1213.84 389.931 1215.17 391.263 1215.17 392.901C1215.17 394.538 1213.84 395.871 1212.2 395.871C1210.57 395.871 1209.23 394.538 1209.23 392.901Z" fill="#999999" fill-opacity="0.6"/>
<path d="M1224.19 52.0469C1224.19 50.4095 1225.52 49.0767 1227.16 49.0767C1228.8 49.0767 1230.13 50.4095 1230.13 52.0469C1230.13 53.6843 1228.8 55.0171 1227.16 55.0171C1225.52 55.0171 1224.19 53.6843 1224.19 52.0469Z" fill="#999999" fill-opacity="0.6"/>
<path d="M1227.16 103.34C1255.47 103.34 1278.43 80.3755 1278.43 52.0467C1278.43 23.7179 1255.47 0.75293 1227.16 0.75293C1198.85 0.75293 1175.9 23.7179 1175.9 52.0467C1175.9 80.3755 1198.85 103.34 1227.16 103.34Z" stroke="#999999" stroke-opacity="0.6" stroke-width="0.5" stroke-miterlimit="10"/>
<path d="M1225.44 425.213C1243.32 417.897 1251.89 397.465 1244.57 379.575C1237.26 361.686 1216.84 353.113 1198.96 360.428C1181.08 367.744 1172.52 388.176 1179.83 406.066C1187.14 423.956 1207.56 432.528 1225.44 425.213Z" stroke="#999999" stroke-opacity="0.6" stroke-width="0.5" stroke-miterlimit="10"/>
<path d="M1203.77 112.727C1203.77 111.09 1205.1 109.757 1206.74 109.757C1208.38 109.757 1209.71 111.09 1209.71 112.727C1209.71 114.365 1208.38 115.697 1206.74 115.697C1205.1 115.697 1203.77 114.365 1203.77 112.727Z" fill="#999999" fill-opacity="0.6"/>
<path d="M1392.28 72.9717H1337.4L1297.68 112.727H1206.74" stroke="#999999" stroke-opacity="0.6" stroke-width="0.5" stroke-miterlimit="10"/>
<path d="M848.704 293.208H1112.57L1212.2 392.901" stroke="#999999" stroke-opacity="0.6" stroke-width="0.5" stroke-miterlimit="10"/>
<path d="M803.585 124.989H1084L1156.9 52.0469H1224.82" stroke="#999999" stroke-opacity="0.6" stroke-width="0.5" stroke-miterlimit="10"/>
<path d="M824.879 337H1118.45L1137.38 318.036" stroke="#999999" stroke-opacity="0.6" stroke-width="0.5" stroke-miterlimit="10"/>
<path d="M858.504 227.196H1022.78L1041.19 208.784H1260.65" stroke="#999999" stroke-opacity="0.6" stroke-width="0.5" stroke-miterlimit="10"/>
<path d="M1008.49 96.7522L1015.9 96.0668L1012.55 92.7158L1009.2 89.3647L1008.49 96.7522Z" fill="#999999" fill-opacity="0.6"/>
<path d="M1249.42 65.2793H1040.04L1012.58 92.754" stroke="#999999" stroke-opacity="0.6" stroke-width="0.5" stroke-miterlimit="10"/>
</svg>
